# Blender v2.80 (sub 75) OBJ File: 'car_form2.blend'
# www.blender.org
mtllib car_form2_back.mtl
o Cube
v 1.100000 0.350000 -1.900000
v 1.100000 -0.100000 -2.000000
v 1.100000 -0.350000 -0.600000
v 1.100000 0.500000 -0.650000
v 1.100000 -0.300000 -1.400000
v 1.100000 0.500000 -1.400000
v 0.850000 0.800000 -0.600000
v 0.850000 0.500000 -0.700000
v 1.100000 0.200000 -2.050000
v 1.200000 0.150000 -0.650000
v 1.200000 0.150000 -1.400000
v 1.100000 0.050000 -2.050000
v 1.200000 -0.100000 -0.650000
v 1.200000 -0.050000 -1.400000
v -1.100000 0.350000 -1.900000
v -1.100000 -0.100000 -2.000000
v 0.000000 -0.100000 -2.000000
v 0.000000 0.350000 -1.900000
v -1.100000 -0.350000 -0.600000
v 0.000000 -0.400000 -0.600000
v -1.100000 0.500000 -0.650000
v -1.100000 -0.300000 -1.400000
v 0.000000 -0.350000 -1.400000
v -1.100000 0.500000 -1.400000
v 0.000000 0.500000 -1.400000
v -0.850000 0.800000 -0.600000
v 0.000000 0.800000 -0.600000
v -0.850000 0.500000 -0.700000
v 0.000000 0.500000 -0.700000
v -1.100000 0.200000 -2.050000
v 0.000000 0.200000 -2.050000
v -1.200000 0.150000 -0.650000
v -1.200000 0.150000 -1.400000
v -1.100000 0.050000 -2.050000
v 0.000000 0.050000 -2.050000
v -1.200000 -0.100000 -0.650000
v -1.200000 -0.050000 -1.400000
vt 0.994804 0.291171
vt 0.994804 0.354870
vt 0.742256 0.354870
vt 0.742256 0.291171
vt 0.742256 0.404661
vt 0.994804 0.404661
vt 0.153538 0.211160
vt 0.259389 0.080916
vt 0.324233 0.141424
vt 0.218382 0.271668
vt 0.996191 0.551960
vt 0.995975 0.645007
vt 0.743108 0.640690
vt 0.743702 0.553206
vt 0.742256 0.149868
vt 0.742256 0.007942
vt 0.994804 0.007942
vt 0.994804 0.149868
vt 0.112575 0.139269
vt 0.170852 0.095974
vt 0.799653 0.537396
vt 0.788174 0.487605
vt 0.994804 0.487605
vt 0.994804 0.537396
vt 0.341679 0.025251
vt 0.430282 0.009701
vt 0.067267 0.194665
vt 0.078024 0.303488
vt 0.142868 0.363996
vt 0.994804 0.221513
vt 0.742256 0.221513
vt 0.006966 0.398864
vt 0.076133 0.463405
vt 0.026282 0.254096
vt 0.742256 0.291171
vt 0.742256 0.354870
vt 0.742256 0.404661
vt 0.153538 0.211160
vt 0.218382 0.271668
vt 0.324233 0.141424
vt 0.259389 0.080916
vt 0.996191 0.551960
vt 0.995975 0.645007
vt 0.742256 0.149868
vt 0.742256 0.007942
vt 0.112575 0.139269
vt 0.170852 0.095974
vt 0.799653 0.537396
vt 0.788174 0.487605
vt 0.430282 0.009701
vt 0.341679 0.025251
vt 0.067267 0.194665
vt 0.078024 0.303488
vt 0.142868 0.363996
vt 0.742256 0.221513
vt 0.006966 0.398864
vt 0.076133 0.463405
vt 0.026282 0.254096
vn 0.0000 0.7071 -0.7071
vn 0.0000 0.9578 -0.2873
vn 0.9615 0.2747 0.0000
vn 0.0453 -0.9970 -0.0623
vn 0.0213 -0.9361 -0.3510
vn 0.9688 0.2249 -0.1038
vn 0.0000 0.3162 -0.9487
vn 0.0000 1.0000 0.0000
vn 0.0664 0.9409 -0.3321
vn 0.9884 0.0000 -0.1521
vn 1.0000 0.0000 0.0000
vn 0.0000 0.0000 -1.0000
vn 0.0000 -0.3162 -0.9487
vn 0.9274 -0.3734 -0.0241
vn 0.9567 -0.2564 -0.1381
vn -0.9615 0.2747 0.0000
vn -0.0453 -0.9970 -0.0623
vn -0.0213 -0.9361 -0.3510
vn -0.9688 0.2249 -0.1038
vn -0.0664 0.9409 -0.3321
vn -0.9884 0.0000 -0.1521
vn -1.0000 0.0000 0.0000
vn -0.9274 -0.3734 -0.0241
vn -0.9567 -0.2564 -0.1381
usemtl Material
s off
f 31/1/1 18/2/1 1/3/1 9/4/1
f 6/5/2 1/3/2 18/2/2 25/6/2
f 11/7/3 6/8/3 4/9/3 10/10/3
f 5/11/4 3/12/4 20/13/4 23/14/4
f 2/15/5 5/16/5 23/17/5 17/18/5
f 9/19/6 1/20/6 6/8/6 11/7/6
f 7/21/7 8/22/7 29/23/7 27/24/7
f 6/5/8 25/6/8 29/23/8 8/22/8
f 4/9/9 6/8/9 8/25/9 7/26/9
f 12/27/10 9/19/10 11/7/10 14/28/10
f 14/28/11 11/7/11 10/10/11 13/29/11
f 35/30/12 31/1/12 9/4/12 12/31/12
f 17/18/13 35/30/13 12/31/13 2/15/13
f 5/32/14 14/28/14 13/29/14 3/33/14
f 2/34/15 12/27/15 14/28/15 5/32/15
f 31/1/1 30/35/1 15/36/1 18/2/1
f 24/37/2 25/6/2 18/2/2 15/36/2
f 33/38/16 32/39/16 21/40/16 24/41/16
f 22/42/17 23/14/17 20/13/17 19/43/17
f 16/44/18 17/18/18 23/17/18 22/45/18
f 30/46/19 33/38/19 24/41/19 15/47/19
f 26/48/7 27/24/7 29/23/7 28/49/7
f 24/37/8 28/49/8 29/23/8 25/6/8
f 21/40/20 26/50/20 28/51/20 24/41/20
f 34/52/21 37/53/21 33/38/21 30/46/21
f 37/53/22 36/54/22 32/39/22 33/38/22
f 35/30/12 34/55/12 30/35/12 31/1/12
f 17/18/13 16/44/13 34/55/13 35/30/13
f 22/56/23 19/57/23 36/54/23 37/53/23
f 16/58/24 22/56/24 37/53/24 34/52/24
l 4 8
l 21 28
