# Blender v2.77 (sub 0) OBJ File: ''
# www.blender.org
mtllib car_back_A.mtl
o Cube.014
v 0.000000 0.200000 2.050000
v 0.000000 0.350000 1.900000
v -1.100000 0.350000 1.900000
v -1.100000 0.200000 2.050000
v -1.100000 0.500000 1.400000
v 0.000000 0.500000 1.400000
v -1.200000 0.150000 1.400000
v -1.100000 0.500000 0.650000
v -1.200000 0.150000 0.650000
v -1.100000 -0.300000 1.400000
v -1.100000 -0.350000 0.600000
v 0.000000 -0.398990 0.599702
v 0.000000 -0.350000 1.400000
v -1.100000 -0.100000 2.000000
v 0.000000 -0.100000 2.000000
v -0.850000 0.800000 0.650000
v -0.900000 0.700000 1.050000
v 0.000000 0.700000 1.050000
v 0.000000 0.800000 0.650000
v -1.100000 0.050000 2.050000
v -1.200000 -0.050000 1.400000
v -1.200000 -0.100000 0.650000
v 0.000000 0.050000 2.050000
v 1.100000 0.200000 2.050000
v 1.100000 0.350000 1.900000
v 1.100000 0.500000 1.400000
v 1.200000 0.150000 1.400000
v 1.200000 0.150000 0.650000
v 1.100000 0.500000 0.650000
v 1.100000 -0.300000 1.400000
v 1.100000 -0.350000 0.600000
v 1.100000 -0.100000 2.000000
v 0.850000 0.800000 0.650000
v 0.900000 0.700000 1.050000
v 1.100000 0.050000 2.050000
v 1.200000 -0.050000 1.400000
v 1.200000 -0.100000 0.650000
vt 0.9948 0.2912
vt 0.9948 0.3549
vt 0.7423 0.3549
vt 0.7423 0.2912
vt 0.7423 0.4047
vt 0.9948 0.4047
vt 0.1535 0.2112
vt 0.2594 0.0809
vt 0.3242 0.1414
vt 0.2184 0.2717
vt 0.1126 0.1393
vt 0.1709 0.0960
vt 0.7997 0.5374
vt 0.7882 0.4876
vt 0.9948 0.4876
vt 0.9948 0.5374
vt 0.3417 0.0253
vt 0.4303 0.0097
vt 0.7423 0.2912
vt 0.7423 0.3549
vt 0.7423 0.4047
vt 0.1535 0.2112
vt 0.2184 0.2717
vt 0.3242 0.1414
vt 0.2594 0.0809
vt 0.1126 0.1393
vt 0.1709 0.0960
vt 0.7997 0.5374
vt 0.7882 0.4876
vt 0.4303 0.0097
vt 0.3417 0.0253
vt 0.0673 0.1947
vt 0.0780 0.3035
vt 0.1429 0.3640
vt 0.9948 0.2215
vt 0.7423 0.2215
vt 0.0673 0.1947
vt 0.0780 0.3035
vt 0.1429 0.3640
vt 0.7423 0.2215
vt 0.9962 0.5520
vt 0.9960 0.6450
vt 0.7431 0.6407
vt 0.7437 0.5532
vt 0.7423 0.1499
vt 0.7423 0.0079
vt 0.9948 0.0079
vt 0.9948 0.1499
vt 0.0070 0.3989
vt 0.0761 0.4634
vt 0.0263 0.2541
vt 0.9962 0.5520
vt 0.9960 0.6450
vt 0.7423 0.1499
vt 0.7423 0.0079
vt 0.0070 0.3989
vt 0.0761 0.4634
vt 0.0263 0.2541
vn 0.0000 0.7071 0.7071
vn 0.0000 0.9578 0.2873
vn -0.9615 0.2747 -0.0000
vn -0.9688 0.2249 0.1038
vn 0.0000 0.9701 0.2425
vn -0.7335 0.6792 0.0272
vn 0.9615 0.2747 -0.0000
vn 0.9688 0.2249 0.1038
vn 0.7335 0.6792 0.0272
vn -0.9884 0.0000 0.1521
vn -1.0000 0.0000 0.0000
vn 0.0000 0.0000 1.0000
vn 0.9884 0.0000 0.1521
vn 1.0000 0.0000 0.0000
vn -0.0449 -0.9971 0.0617
vn -0.0213 -0.9361 0.3510
vn 0.0000 -0.3162 0.9487
vn -0.9274 -0.3734 0.0241
vn -0.9567 -0.2564 0.1381
vn 0.0449 -0.9971 0.0617
vn 0.0213 -0.9361 0.3510
vn 0.9274 -0.3734 0.0241
vn 0.9567 -0.2564 0.1381
vn 0.0000 0.8682 0.4961
usemtl Material.042
s 1
f 1/1/1 2/2/1 3/3/1 4/4/1
f 5/5/2 3/3/2 2/2/2 6/6/2
f 7/7/3 5/8/3 8/9/3 9/10/3
f 4/11/4 3/12/4 5/8/4 7/7/4
f 16/13/5 17/14/5 18/15/5 19/16/5
f 8/9/6 5/8/6 17/17/6 16/18/6
f 1/1/1 24/19/1 25/20/1 2/2/1
f 26/21/2 6/6/2 2/2/2 25/20/2
f 27/22/7 28/23/7 29/24/7 26/25/7
f 24/26/8 27/22/8 26/25/8 25/27/8
f 33/28/5 19/16/5 18/15/5 34/29/5
f 29/24/9 33/30/9 34/31/9 26/25/9
usemtl Material.043
f 20/32/10 4/11/10 7/7/10 21/33/10
f 21/33/11 7/7/11 9/10/11 22/34/11
f 23/35/12 1/1/12 4/4/12 20/36/12
f 35/37/13 36/38/13 27/22/13 24/26/13
f 36/38/14 37/39/14 28/23/14 27/22/14
f 23/35/12 35/40/12 24/19/12 1/1/12
usemtl Material.044
f 10/41/15 11/42/15 12/43/15 13/44/15
f 14/45/16 10/46/16 13/47/16 15/48/16
f 15/48/17 23/35/17 20/36/17 14/45/17
f 10/49/18 21/33/18 22/34/18 11/50/18
f 14/51/19 20/32/19 21/33/19 10/49/19
f 30/52/20 13/44/20 12/43/20 31/53/20
f 32/54/21 15/48/21 13/47/21 30/55/21
f 15/48/17 32/54/17 35/40/17 23/35/17
f 30/56/22 31/57/22 37/39/22 36/38/22
f 32/58/23 30/56/23 36/38/23 35/37/23
usemtl Material.045
f 5/5/24 6/6/24 18/15/24 17/14/24
f 26/21/24 34/29/24 18/15/24 6/6/24
