# Blender v2.77 (sub 0) OBJ File: ''
# www.blender.org
mtllib car_mid_A.mtl
o Cube.018
v -1.100000 0.400000 -1.300000
v -1.100000 0.500000 -0.700000
v 0.000000 0.500000 -0.700000
v 0.000000 0.400000 -1.300000
v -1.100000 -0.350000 0.600000
v -1.100000 -0.400000 -0.550000
v 0.000000 -0.449703 -0.524078
v 0.000000 -0.398990 0.599702
v -1.200000 0.150000 0.650000
v -1.100000 0.500000 0.650000
v -1.200000 0.100000 -0.650000
v -1.100000 -0.400000 -1.300000
v 0.000000 -0.450000 -1.300000
v -1.200000 0.100000 -1.300000
v -0.850000 0.800000 -0.000000
v 0.000000 0.800000 -0.000000
v -0.850000 0.800000 0.650000
v 0.000000 0.800000 0.650000
v -1.200000 -0.150000 -0.600000
v -1.200000 -0.150000 -1.300000
v -1.200000 -0.100000 0.650000
v 1.100000 0.400000 -1.300000
v 1.100000 0.500000 -0.700000
v 1.100000 -0.350000 0.600000
v 1.100000 -0.400000 -0.550000
v 1.200000 0.150000 0.650000
v 1.200000 0.100000 -0.650000
v 1.100000 0.500000 0.650000
v 1.100000 -0.400000 -1.300000
v 1.200000 0.100000 -1.300000
v 0.850000 0.800000 -0.000000
v 0.850000 0.800000 0.650000
v 1.200000 -0.150000 -0.600000
v 1.200000 -0.150000 -1.300000
v 1.200000 -0.100000 0.650000
vt 0.4821 0.3247
vt 0.4821 0.2437
vt 0.7347 0.2437
vt 0.7347 0.3247
vt 0.2184 0.2717
vt 0.3242 0.1414
vt 0.4410 0.2503
vt 0.3157 0.3950
vt 0.4626 0.3357
vt 0.3762 0.4515
vt 0.5395 0.0734
vt 0.5395 0.0097
vt 0.7347 0.0097
vt 0.7347 0.0734
vt 0.4821 0.3247
vt 0.4821 0.2437
vt 0.2184 0.2717
vt 0.3157 0.3950
vt 0.4410 0.2503
vt 0.3242 0.1414
vt 0.3762 0.4515
vt 0.4626 0.3357
vt 0.5395 0.0734
vt 0.5395 0.0097
vt 0.2358 0.4833
vt 0.3007 0.5438
vt 0.1429 0.3640
vt 0.2358 0.4833
vt 0.3007 0.5438
vt 0.1429 0.3640
vt 0.9960 0.6450
vt 0.9952 0.7593
vt 0.7423 0.7532
vt 0.7431 0.6407
vt 0.9950 0.8524
vt 0.7425 0.8535
vt 0.0761 0.4634
vt 0.1518 0.5666
vt 0.2210 0.6311
vt 0.9960 0.6450
vt 0.9952 0.7593
vt 0.9950 0.8524
vt 0.0761 0.4634
vt 0.1518 0.5666
vt 0.2210 0.6311
vt 0.4303 0.0097
vt 0.4714 0.0806
vt 0.4714 0.0806
vt 0.4303 0.0097
vn 0.0000 0.9864 -0.1644
vn -0.9663 0.2574 -0.0049
vn -0.9617 0.2732 -0.0219
vn 0.0000 1.0000 -0.0000
vn 0.9663 0.2574 -0.0049
vn 0.9617 0.2732 -0.0219
vn -1.0000 -0.0000 0.0000
vn 1.0000 -0.0000 0.0000
vn -0.0453 -0.9980 0.0442
vn -0.0453 -0.9990 0.0002
vn -0.9284 -0.3713 0.0155
vn -0.9285 -0.3714 0.0000
vn 0.0453 -0.9980 0.0442
vn 0.0453 -0.9990 0.0002
vn 0.9284 -0.3713 0.0155
vn 0.9285 -0.3714 0.0000
vn 0.0000 0.9191 -0.3939
vn -0.7682 0.6402 -0.0000
vn 0.7682 0.6402 -0.0000
usemtl Material.057
s 1
f 1/1/1 2/2/1 3/3/1 4/4/1
f 9/5/2 10/6/2 2/7/2 11/8/2
f 11/8/3 2/7/3 1/9/3 14/10/3
f 15/11/4 17/12/4 18/13/4 16/14/4
f 22/15/1 4/4/1 3/3/1 23/16/1
f 26/17/5 27/18/5 23/19/5 28/20/5
f 27/18/6 30/21/6 22/22/6 23/19/6
f 31/23/4 16/14/4 18/13/4 32/24/4
usemtl Material.058
f 19/25/7 11/8/7 14/10/7 20/26/7
f 21/27/7 9/5/7 11/8/7 19/25/7
f 33/28/8 34/29/8 30/21/8 27/18/8
f 35/30/8 33/28/8 27/18/8 26/17/8
usemtl Material.059
f 5/31/9 6/32/9 7/33/9 8/34/9
f 6/32/10 12/35/10 13/36/10 7/33/10
f 5/37/11 21/27/11 19/25/11 6/38/11
f 6/38/12 19/25/12 20/26/12 12/39/12
f 24/40/13 8/34/13 7/33/13 25/41/13
f 25/41/14 7/33/14 13/36/14 29/42/14
f 24/43/15 25/44/15 33/28/15 35/30/15
f 25/44/16 29/45/16 34/29/16 33/28/16
usemtl Material.060
f 3/3/17 2/2/17 15/11/17 16/14/17
f 2/7/18 10/6/18 17/46/18 15/47/18
f 3/3/17 16/14/17 31/23/17 23/16/17
f 23/19/19 31/48/19 32/49/19 28/20/19
