# Blender v2.77 (sub 0) OBJ File: ''
# www.blender.org
mtllib car_front_B.mtl
o Cube.024
v 1.200000 0.100000 1.300000
v 1.100000 0.400000 1.300000
v 1.100000 0.351592 1.539327
v 1.100000 0.266667 2.066667
v 1.100000 0.200000 2.450000
v 1.100000 0.100000 2.450000
v 0.733333 0.200000 2.450000
v 0.366667 0.200000 2.450000
v 0.000000 0.200000 2.450000
v 0.000000 0.100000 2.450000
v 1.100000 -0.400000 1.300000
v 1.100000 -0.350000 2.400000
v 0.000000 -0.350000 2.400000
v 0.000000 -0.450000 1.300000
v 0.366667 0.351592 1.439327
v 0.366667 0.400000 1.300000
v 0.000000 0.400000 1.300000
v 0.000000 0.351592 1.439327
v 1.100000 -0.150000 2.450000
v 0.000000 -0.150000 2.450000
v 1.200000 -0.150000 1.300000
v 0.366667 0.266667 2.066667
v 0.000000 0.266667 2.066667
v 0.000000 0.218936 1.449226
v 0.366667 0.218936 1.449226
v 0.733333 0.266667 2.066667
v 0.733333 0.351592 1.439327
v 0.366667 0.217303 2.058717
v 0.733333 0.400000 1.300000
v 0.000000 0.217303 2.058717
v 0.733333 0.217303 2.058717
v -1.200000 0.100000 1.300000
v -1.100000 0.100000 2.450000
v -1.100000 0.200000 2.450000
v -1.100000 0.266667 2.066667
v -1.100000 0.351592 1.539327
v -1.100000 0.400000 1.300000
v -0.366667 0.200000 2.450000
v -0.733333 0.200000 2.450000
v -1.100000 -0.400000 1.300000
v -1.100000 -0.350000 2.400000
v -0.366667 0.351592 1.439327
v -0.366667 0.400000 1.300000
v -1.100000 -0.150000 2.450000
v -1.200000 -0.150000 1.300000
v -0.366667 0.266667 2.066667
v -0.366667 0.218936 1.449226
v -0.733333 0.266667 2.066667
v -0.733333 0.351592 1.439327
v -0.366667 0.217303 2.058717
v -0.733333 0.400000 1.300000
v -0.733333 0.217303 2.058717
vt 0.3762 0.4515
vt 0.4626 0.3357
vt 0.4655 0.3818
vt 0.4685 0.4279
vt 0.4714 0.4741
vt 0.4563 0.5577
vt 0.4821 0.5454
vt 0.4821 0.4602
vt 0.5663 0.4602
vt 0.6505 0.4602
vt 0.7347 0.4602
vt 0.7347 0.5454
vt 0.6505 0.3699
vt 0.6505 0.3247
vt 0.7347 0.3247
vt 0.7347 0.3699
vt 0.6505 0.4151
vt 0.7347 0.4151
vt 0.7347 0.3699
vt 0.6505 0.3699
vt 0.4821 0.4151
vt 0.5663 0.4151
vt 0.4821 0.3699
vt 0.5663 0.3699
vt 0.0000 0.0000
vt 0.0000 0.0000
vt 0.0000 0.0000
vt 0.0000 0.0000
vt 0.4821 0.3247
vt 0.5663 0.3247
vt 0.0000 0.0000
vt 0.0000 0.0000
vt 0.5663 0.4151
vt 0.6505 0.4151
vt 0.7347 0.4151
vt 0.3762 0.4515
vt 0.4563 0.5577
vt 0.4714 0.4741
vt 0.4685 0.4279
vt 0.4655 0.3818
vt 0.4626 0.3357
vt 0.4821 0.5454
vt 0.6505 0.4602
vt 0.5663 0.4602
vt 0.4821 0.4602
vt 0.6505 0.3699
vt 0.6505 0.3247
vt 0.6505 0.4151
vt 0.6505 0.3699
vt 0.5663 0.4151
vt 0.4821 0.4151
vt 0.5663 0.3699
vt 0.4821 0.3699
vt 0.0000 0.0000
vt 0.0000 0.0000
vt 0.0000 0.0000
vt 0.0000 0.0000
vt 0.5663 0.3247
vt 0.4821 0.3247
vt 0.0000 0.0000
vt 0.0000 0.0000
vt 0.6505 0.4151
vt 0.5663 0.4151
vt 0.4821 0.6075
vt 0.7347 0.6075
vt 0.3007 0.5438
vt 0.4110 0.6131
vt 0.4821 0.6075
vt 0.3007 0.5438
vt 0.4110 0.6131
vt 0.9950 0.8524
vt 0.9962 0.9921
vt 0.7437 0.9934
vt 0.7425 0.8535
vt 0.2210 0.6311
vt 0.3527 0.6564
vt 0.4821 0.6596
vt 0.7347 0.6596
vt 0.9950 0.8524
vt 0.9962 0.9921
vt 0.2210 0.6311
vt 0.3527 0.6564
vt 0.4821 0.6596
vn 0.9675 0.2446 0.0638
vn 0.0000 -0.0000 1.0000
vn 0.0000 0.9446 0.3282
vn 0.0000 0.9852 0.1713
vn 0.0000 0.0744 0.9972
vn -0.0198 0.9892 0.1455
vn -1.0000 0.0000 0.0000
vn -0.0338 0.9683 0.2476
vn 0.0000 0.9910 0.1341
vn 0.0000 0.1590 -0.9873
vn -0.9675 0.2446 0.0638
vn 0.0198 0.9892 0.1455
vn 1.0000 -0.0000 -0.0000
vn 0.0338 0.9683 0.2476
vn 0.9962 0.0000 0.0866
vn 0.0000 1.0000 0.0027
vn -0.9962 0.0000 0.0866
vn 0.0227 -0.9974 0.0680
vn 0.9739 -0.2218 0.0482
vn 0.0000 -0.2425 0.9701
vn -0.0227 -0.9974 0.0680
vn -0.9739 -0.2218 0.0482
usemtl Material.075
s 1
f 1/1/1 2/2/1 3/3/1 4/4/1 5/5/1 6/6/1
f 6/7/2 5/8/2 7/9/2 8/10/2 9/11/2 10/12/2
f 15/13/3 16/14/3 17/15/3 18/16/3
f 8/10/4 22/17/4 23/18/4 9/11/4
f 15/13/5 18/16/5 24/19/5 25/20/5
f 5/8/4 4/21/4 26/22/4 7/9/4
f 7/9/4 26/22/4 22/17/4 8/10/4
f 4/21/6 3/23/6 27/24/6 26/22/6
f 22/25/7 15/26/7 25/27/7 28/28/7
f 3/23/8 2/29/8 29/30/8 27/24/8
f 27/24/3 29/30/3 16/14/3 15/13/3
f 26/31/9 27/32/9 15/26/9 22/25/9
f 22/17/10 26/22/10 31/33/10 28/34/10
f 23/18/10 22/17/10 28/34/10 30/35/10
f 32/36/11 33/37/11 34/38/11 35/39/11 36/40/11 37/41/11
f 33/42/2 10/12/2 9/11/2 38/43/2 39/44/2 34/45/2
f 42/46/3 18/16/3 17/15/3 43/47/3
f 38/43/4 9/11/4 23/18/4 46/48/4
f 42/46/5 47/49/5 24/19/5 18/16/5
f 34/45/4 39/44/4 48/50/4 35/51/4
f 39/44/4 38/43/4 46/48/4 48/50/4
f 35/51/12 48/50/12 49/52/12 36/53/12
f 46/54/13 50/55/13 47/56/13 42/57/13
f 36/53/14 49/52/14 51/58/14 37/59/14
f 49/52/3 42/46/3 43/47/3 51/58/3
f 48/60/9 46/54/9 42/57/9 49/61/9
f 46/48/10 50/62/10 52/63/10 48/50/10
f 23/18/10 30/35/10 50/62/10 46/48/10
usemtl Material.076
f 19/64/2 6/7/2 10/12/2 20/65/2
f 21/66/15 1/1/15 6/6/15 19/67/15
f 28/34/16 25/20/16 24/19/16 30/35/16
f 44/68/2 20/65/2 10/12/2 33/42/2
f 45/69/17 44/70/17 33/37/17 32/36/17
f 50/62/16 30/35/16 24/19/16 47/49/16
usemtl Material.077
f 11/71/18 12/72/18 13/73/18 14/74/18
f 11/75/19 21/66/19 19/67/19 12/76/19
f 12/77/20 19/64/20 20/65/20 13/78/20
f 40/79/21 14/74/21 13/73/21 41/80/21
f 40/81/22 41/82/22 44/70/22 45/69/22
f 41/83/20 13/78/20 20/65/20 44/68/20
