# Blender v2.80 (sub 75) OBJ File: 'car_form2.blend'
# www.blender.org
mtllib car_form2_mid.mtl
o Cube
v 1.100000 -0.350000 0.600000
v 1.100000 0.500000 0.700000
v 1.100000 0.400000 1.300000
v 1.100000 -0.400000 1.300000
v 1.100000 -0.350000 -0.600000
v 1.100000 0.500000 -0.650000
v 0.850000 0.800000 -0.600000
v 0.850000 0.800000 0.200000
v 1.200000 0.100000 0.650000
v 1.200000 0.100000 1.300000
v 1.200000 0.150000 -0.650000
v 1.200000 -0.150000 0.600000
v 1.200000 -0.150000 1.300000
v 1.200000 -0.100000 -0.650000
v 0.733333 0.400000 1.300000
v 0.366667 0.400000 1.300000
v -1.100000 -0.350000 0.600000
v -1.100000 0.500000 0.700000
v 0.000000 -0.425030 0.600155
v 0.000000 0.500000 0.700000
v -1.100000 0.400000 1.300000
v 0.000000 0.400000 1.300000
v -1.100000 -0.400000 1.300000
v 0.000000 -0.450000 1.300000
v -1.100000 -0.350000 -0.600000
v 0.000000 -0.400000 -0.600000
v -1.100000 0.500000 -0.650000
v -0.850000 0.800000 -0.600000
v -0.850000 0.800000 0.200000
v 0.000000 0.800000 -0.600000
v 0.000000 0.800000 0.200000
v -1.200000 0.100000 0.650000
v -1.200000 0.100000 1.300000
v -1.200000 0.150000 -0.650000
v -1.200000 -0.150000 0.600000
v -1.200000 -0.150000 1.300000
v -1.200000 -0.100000 -0.650000
v -0.733333 0.400000 1.300000
v -0.366667 0.400000 1.300000
vt 0.482132 0.324680
vt 0.482132 0.243690
vt 0.734680 0.243690
vt 0.734680 0.324680
vt 0.650497 0.324680
vt 0.566314 0.324680
vt 0.995975 0.645007
vt 0.995198 0.759312
vt 0.742277 0.753199
vt 0.743108 0.640690
vt 0.218382 0.271668
vt 0.324233 0.141424
vt 0.440952 0.250338
vt 0.315675 0.395014
vt 0.994982 0.852360
vt 0.742484 0.853489
vt 0.462621 0.335675
vt 0.376196 0.451488
vt 0.539529 0.073354
vt 0.734680 0.073354
vt 0.539529 0.009748
vt 0.734680 0.009748
vt 0.430282 0.009701
vt 0.471377 0.080606
vt 0.235839 0.483308
vt 0.300683 0.543816
vt 0.142868 0.363996
vt 0.076133 0.463405
vt 0.151812 0.566582
vt 0.220978 0.631124
vt 0.482132 0.324680
vt 0.566314 0.324680
vt 0.650497 0.324680
vt 0.482132 0.243690
vt 0.995975 0.645007
vt 0.995198 0.759312
vt 0.218382 0.271668
vt 0.315675 0.395014
vt 0.440952 0.250338
vt 0.324233 0.141424
vt 0.994982 0.852360
vt 0.376196 0.451488
vt 0.462621 0.335675
vt 0.539529 0.073354
vt 0.539529 0.009748
vt 0.471377 0.080606
vt 0.430282 0.009701
vt 0.235839 0.483308
vt 0.300683 0.543816
vt 0.142868 0.363996
vt 0.076133 0.463405
vt 0.151812 0.566582
vt 0.220978 0.631124
vn 0.0000 0.9864 0.1644
vn 0.0567 -0.9983 -0.0104
vn 0.9663 0.2574 0.0049
vn 0.0567 -0.9970 -0.0534
vn 0.9617 0.2732 0.0219
vn 0.0000 0.8575 0.5145
vn 0.0000 1.0000 0.0000
vn 0.7682 0.6402 0.0000
vn 1.0000 0.0000 0.0000
vn 0.9134 -0.4069 -0.0083
vn 0.9137 -0.4061 -0.0145
vn -0.0567 -0.9983 -0.0104
vn -0.9663 0.2574 0.0049
vn -0.0567 -0.9970 -0.0534
vn -0.9617 0.2732 0.0219
vn -0.7682 0.6402 0.0000
vn -1.0000 0.0000 0.0000
vn -0.9134 -0.4069 -0.0083
vn -0.9137 -0.4061 -0.0145
usemtl Material
s off
f 3/1/1 2/2/1 20/3/1 22/4/1 16/5/1 15/6/1
f 5/7/2 1/8/2 19/9/2 26/10/2
f 11/11/3 6/12/3 2/13/3 9/14/3
f 1/8/4 4/15/4 24/16/4 19/9/4
f 9/14/5 2/13/5 3/17/5 10/18/5
f 20/3/6 2/2/6 8/19/6 31/20/6
f 8/19/7 7/21/7 30/22/7 31/20/7
f 2/13/8 6/12/8 7/23/8 8/24/8
f 12/25/9 9/14/9 10/18/9 13/26/9
f 14/27/9 11/11/9 9/14/9 12/25/9
f 5/28/10 14/27/10 12/25/10 1/29/10
f 1/29/11 12/25/11 13/26/11 4/30/11
f 21/31/1 38/32/1 39/33/1 22/4/1 20/3/1 18/34/1
f 25/35/12 26/10/12 19/9/12 17/36/12
f 34/37/13 32/38/13 18/39/13 27/40/13
f 17/36/14 19/9/14 24/16/14 23/41/14
f 32/38/15 33/42/15 21/43/15 18/39/15
f 20/3/6 31/20/6 29/44/6 18/34/6
f 29/44/7 31/20/7 30/22/7 28/45/7
f 18/39/16 29/46/16 28/47/16 27/40/16
f 35/48/17 36/49/17 33/42/17 32/38/17
f 37/50/17 35/48/17 32/38/17 34/37/17
f 25/51/18 17/52/18 35/48/18 37/50/18
f 17/52/19 23/53/19 36/49/19 35/48/19
