# Blender v2.80 (sub 75) OBJ File: 'car_form2.blend'
# www.blender.org
mtllib car_form2_front.mtl
o Cube
v 1.100000 0.200000 2.450000
v 1.100000 -0.350000 2.400000
v 1.100000 0.400000 1.300000
v 1.100000 -0.400000 1.300000
v 1.100000 0.100000 2.450000
v 1.200000 0.100000 1.300000
v 1.100000 -0.150000 2.450000
v 1.200000 -0.150000 1.300000
v 1.100000 0.351592 1.539327
v 1.100000 0.266667 2.066667
v 0.733333 0.200000 2.450000
v 0.366667 0.200000 2.450000
v 0.733333 0.400000 1.300000
v 0.366667 0.400000 1.300000
v 0.733333 0.266667 2.066667
v 0.366667 0.266667 2.066667
v 0.733333 0.351592 1.439327
v 0.366667 0.351592 1.439327
v 0.366667 0.217303 2.058717
v 0.733333 0.217303 2.058717
v 0.366667 0.218936 1.449226
v -1.100000 0.200000 2.450000
v -1.100000 -0.350000 2.400000
v 0.000000 0.200000 2.450000
v 0.000000 -0.350000 2.400000
v -1.100000 0.400000 1.300000
v 0.000000 0.400000 1.300000
v -1.100000 -0.400000 1.300000
v 0.000000 -0.450000 1.300000
v -1.100000 0.100000 2.450000
v 0.000000 0.100000 2.450000
v -1.200000 0.100000 1.300000
v -1.100000 -0.150000 2.450000
v 0.000000 -0.150000 2.450000
v -1.200000 -0.150000 1.300000
v -1.100000 0.351592 1.539327
v -1.100000 0.266667 2.066667
v -0.733333 0.200000 2.450000
v -0.366667 0.200000 2.450000
v 0.000000 0.351592 1.439327
v 0.000000 0.266667 2.066667
v -0.733333 0.400000 1.300000
v -0.366667 0.400000 1.300000
v -0.733333 0.266667 2.066667
v -0.366667 0.266667 2.066667
v -0.733333 0.351592 1.439327
v -0.366667 0.351592 1.439327
v 0.000000 0.218936 1.449226
v 0.000000 0.217303 2.058717
v -0.366667 0.217303 2.058717
v -0.733333 0.217303 2.058717
v -0.366667 0.218936 1.449226
vt 0.376196 0.451488
vt 0.462621 0.335675
vt 0.465540 0.381810
vt 0.468459 0.427945
vt 0.471377 0.474079
vt 0.456330 0.557713
vt 0.482132 0.545415
vt 0.482132 0.460247
vt 0.566314 0.460247
vt 0.650497 0.460247
vt 0.734680 0.460247
vt 0.734680 0.545415
vt 0.994982 0.852360
vt 0.996191 0.992133
vt 0.743702 0.993379
vt 0.742484 0.853489
vt 0.650497 0.369869
vt 0.650497 0.324680
vt 0.734680 0.324680
vt 0.734680 0.369869
vt 0.482132 0.607472
vt 0.734680 0.607472
vt 0.300683 0.543816
vt 0.411022 0.613110
vt 0.220978 0.631124
vt 0.352745 0.656405
vt 0.482132 0.659624
vt 0.734680 0.659624
vt 0.650497 0.415058
vt 0.734680 0.415058
vt 0.734680 0.369869
vt 0.650497 0.369869
vt 0.482132 0.415058
vt 0.566314 0.415058
vt 0.482132 0.369869
vt 0.566314 0.369869
vt 0.000000 0.000000
vt 0.000000 0.000000
vt 0.000000 0.000000
vt 0.000000 0.000000
vt 0.482132 0.324680
vt 0.566314 0.324680
vt 0.650497 0.415058
vt 0.734680 0.415058
vt 0.000000 0.000000
vt 0.000000 0.000000
vt 0.566314 0.415058
vt 0.376196 0.451488
vt 0.456330 0.557713
vt 0.471377 0.474079
vt 0.468459 0.427945
vt 0.465540 0.381810
vt 0.462621 0.335675
vt 0.482132 0.545415
vt 0.650497 0.460247
vt 0.566314 0.460247
vt 0.482132 0.460247
vt 0.994982 0.852360
vt 0.996191 0.992133
vt 0.650497 0.369869
vt 0.650497 0.324680
vt 0.482132 0.607472
vt 0.300683 0.543816
vt 0.411022 0.613110
vt 0.220978 0.631124
vt 0.352745 0.656405
vt 0.482132 0.659624
vt 0.650497 0.415058
vt 0.650497 0.369869
vt 0.566314 0.415058
vt 0.482132 0.415058
vt 0.566314 0.369869
vt 0.482132 0.369869
vt 0.000000 0.000000
vt 0.000000 0.000000
vt 0.000000 0.000000
vt 0.000000 0.000000
vt 0.566314 0.324680
vt 0.482132 0.324680
vt 0.650497 0.415058
vt 0.000000 0.000000
vt 0.000000 0.000000
vt 0.566314 0.415058
vn 0.9675 0.2446 0.0638
vn 0.0000 0.0000 1.0000
vn 0.0227 -0.9974 0.0680
vn 0.0000 0.9446 0.3282
vn 0.9962 0.0000 0.0866
vn 0.9739 -0.2218 0.0482
vn 0.0000 -0.2425 0.9701
vn 0.0000 0.9852 0.1713
vn 0.0000 0.0744 0.9972
vn -0.0198 0.9892 0.1455
vn -1.0000 0.0000 0.0000
vn -0.0338 0.9683 0.2476
vn 0.0000 1.0000 0.0027
vn 0.0000 0.9910 0.1341
vn 0.0000 0.1590 -0.9873
vn -0.9675 0.2446 0.0638
vn -0.0227 -0.9974 0.0680
vn -0.9962 0.0000 0.0866
vn -0.9739 -0.2218 0.0482
vn 0.0198 0.9892 0.1455
vn 1.0000 0.0000 0.0000
vn 0.0338 0.9683 0.2476
usemtl Material
s off
f 6/1/1 3/2/1 9/3/1 10/4/1 1/5/1 5/6/1
f 5/7/2 1/8/2 11/9/2 12/10/2 24/11/2 31/12/2
f 4/13/3 2/14/3 25/15/3 29/16/3
f 18/17/4 14/18/4 27/19/4 40/20/4
f 7/21/2 5/7/2 31/12/2 34/22/2
f 8/23/5 6/1/5 5/6/5 7/24/5
f 4/25/6 8/23/6 7/24/6 2/26/6
f 2/27/7 7/21/7 34/22/7 25/28/7
f 12/10/8 16/29/8 41/30/8 24/11/8
f 18/17/9 40/20/9 48/31/9 21/32/9
f 1/8/8 10/33/8 15/34/8 11/9/8
f 11/9/8 15/34/8 16/29/8 12/10/8
f 10/33/10 9/35/10 17/36/10 15/34/10
f 16/37/11 18/38/11 21/39/11 19/40/11
f 9/35/12 3/41/12 13/42/12 17/36/12
f 17/36/4 13/42/4 14/18/4 18/17/4
f 19/43/13 21/32/13 48/31/13 49/44/13
f 15/45/14 17/46/14 18/38/14 16/37/14
f 16/29/15 15/34/15 20/47/15 19/43/15
f 41/30/15 16/29/15 19/43/15 49/44/15
f 32/48/16 30/49/16 22/50/16 37/51/16 36/52/16 26/53/16
f 30/54/2 31/12/2 24/11/2 39/55/2 38/56/2 22/57/2
f 28/58/17 29/16/17 25/15/17 23/59/17
f 47/60/4 40/20/4 27/19/4 43/61/4
f 33/62/2 34/22/2 31/12/2 30/54/2
f 35/63/18 33/64/18 30/49/18 32/48/18
f 28/65/19 23/66/19 33/64/19 35/63/19
f 23/67/7 25/28/7 34/22/7 33/62/7
f 39/55/8 24/11/8 41/30/8 45/68/8
f 47/60/9 52/69/9 48/31/9 40/20/9
f 22/57/8 38/56/8 44/70/8 37/71/8
f 38/56/8 39/55/8 45/68/8 44/70/8
f 37/71/20 44/70/20 46/72/20 36/73/20
f 45/74/21 50/75/21 52/76/21 47/77/21
f 36/73/22 46/72/22 42/78/22 26/79/22
f 46/72/4 47/60/4 43/61/4 42/78/4
f 50/80/13 49/44/13 48/31/13 52/69/13
f 44/81/14 45/74/14 47/77/14 46/82/14
f 45/68/15 50/80/15 51/83/15 44/70/15
f 41/30/15 49/44/15 50/80/15 45/68/15
