# Blender v2.77 (sub 0) OBJ File: ''
# www.blender.org
mtllib car_front_A.mtl
o Cube.016
v -1.200000 0.100000 -1.300000
v -1.100000 0.400000 -1.300000
v -1.100000 0.200000 -2.100000
v -1.100000 0.050000 -2.450000
v 0.000000 0.200000 -2.100000
v 0.000000 0.050000 -2.450000
v -1.100000 -0.400000 -1.300000
v -1.100000 -0.250000 -2.300000
v 0.000000 -0.250000 -2.300000
v 0.000000 -0.450000 -1.300000
v 0.000000 0.400000 -1.300000
v -1.100000 -0.100000 -2.450000
v 0.000000 -0.100000 -2.450000
v -1.200000 -0.150000 -1.300000
v 1.200000 0.100000 -1.300000
v 1.100000 0.050000 -2.450000
v 1.100000 0.200000 -2.100000
v 1.100000 0.400000 -1.300000
v 1.100000 -0.400000 -1.300000
v 1.100000 -0.250000 -2.300000
v 1.100000 -0.100000 -2.450000
v 1.200000 -0.150000 -1.300000
vt 0.3762 0.4515
vt 0.4626 0.3357
vt 0.4714 0.4741
vt 0.4563 0.5577
vt 0.4821 0.5454
vt 0.4821 0.4602
vt 0.7347 0.4602
vt 0.7347 0.5454
vt 0.4821 0.3247
vt 0.7347 0.3247
vt 0.3762 0.4515
vt 0.4563 0.5577
vt 0.4714 0.4741
vt 0.4626 0.3357
vt 0.4821 0.5454
vt 0.4821 0.4602
vt 0.4821 0.3247
vt 0.4821 0.6075
vt 0.7347 0.6075
vt 0.3007 0.5438
vt 0.4110 0.6131
vt 0.4821 0.6075
vt 0.3007 0.5438
vt 0.4110 0.6131
vt 0.9950 0.8524
vt 0.9962 0.9921
vt 0.7437 0.9934
vt 0.7425 0.8535
vt 0.2210 0.6311
vt 0.3527 0.6564
vt 0.4821 0.6596
vt 0.7347 0.6596
vt 0.9950 0.8524
vt 0.9962 0.9921
vt 0.2210 0.6311
vt 0.3527 0.6564
vt 0.4821 0.6596
vn -0.9567 0.2785 -0.0848
vn 0.0000 0.9191 -0.3939
vn 0.0000 0.9701 -0.2425
vn 0.9567 0.2785 -0.0848
vn 0.0000 0.0000 -1.0000
vn -0.9962 0.0000 -0.0866
vn 0.9962 0.0000 -0.0866
vn -0.0224 -0.9848 -0.1723
vn -0.9614 -0.2664 -0.0695
vn 0.0000 -0.7071 -0.7071
vn 0.0224 -0.9848 -0.1723
vn 0.9614 -0.2664 -0.0695
usemtl Material.050
s 1
f 1/1/1 2/2/1 3/3/1 4/4/1
f 4/5/2 3/6/2 5/7/2 6/8/2
f 3/6/3 2/9/3 11/10/3 5/7/3
f 15/11/4 16/12/4 17/13/4 18/14/4
f 16/15/2 6/8/2 5/7/2 17/16/2
f 17/16/3 5/7/3 11/10/3 18/17/3
usemtl Material.052
f 12/18/5 4/5/5 6/8/5 13/19/5
f 14/20/6 1/1/6 4/4/6 12/21/6
f 21/22/5 13/19/5 6/8/5 16/15/5
f 22/23/7 21/24/7 16/12/7 15/11/7
usemtl Material.051
f 7/25/8 8/26/8 9/27/8 10/28/8
f 7/29/9 14/20/9 12/21/9 8/30/9
f 8/31/10 12/18/10 13/19/10 9/32/10
f 19/33/11 10/28/11 9/27/11 20/34/11
f 19/35/12 20/36/12 21/24/12 22/23/12
f 20/37/10 9/32/10 13/19/10 21/22/10
