# Blender v2.80 (sub 75) OBJ File: 'car_front_root.blend'
# www.blender.org
mtllib car_front_2.mtl
o Cube
v 1.100000 0.200000 2.400000
v 1.100000 -0.300000 2.300000
v 1.100000 0.400000 1.300000
v 1.100000 0.300000 1.850000
v 1.100000 -0.400000 1.300000
v 1.100000 0.000000 2.400000
v 1.200000 0.100000 1.300000
v 1.100000 -0.200000 2.400000
v 1.200000 -0.150000 1.300000
v 1.100000 0.200000 2.400000
v 1.100000 0.400000 1.300000
v 0.550000 0.200000 2.400000
v 0.550000 0.400000 1.300000
v 1.100000 0.250000 2.125000
v 0.550000 0.250000 2.125000
v 1.100000 0.350000 1.575000
v 0.550000 0.350000 1.575000
v 0.275000 0.200000 2.400000
v 0.275000 0.400000 1.300000
v 0.275000 0.300000 1.850000
v 0.275000 0.250000 2.125000
v 0.275000 0.350000 1.575000
v 0.825000 0.200000 2.400000
v 0.825000 0.400000 1.300000
v 0.825000 0.300000 1.850000
v 0.825000 0.250000 2.125000
v 0.825000 0.350000 1.575000
v 0.825000 0.214570 2.118558
v 0.550000 0.214570 2.118558
v 0.825000 0.314570 1.568558
v 0.550000 0.314570 1.568558
v 0.275000 0.214570 2.118558
v 0.275000 0.314570 1.568558
v 0.275000 0.264570 1.843558
v 0.825000 0.264570 1.843558
v -1.100000 0.200000 2.400000
v -1.100000 -0.300000 2.300000
v 0.000000 0.200000 2.400000
v 0.000000 -0.300000 2.300000
v -1.100000 0.400000 1.300000
v -1.100000 0.300000 1.850000
v -1.100000 -0.400000 1.300000
v 0.000000 -0.450000 1.300000
v -1.100000 0.000000 2.400000
v 0.000000 0.000000 2.400000
v -1.200000 0.100000 1.300000
v -1.100000 -0.200000 2.400000
v 0.000000 -0.200000 2.400000
v -1.200000 -0.150000 1.300000
v -1.100000 0.200000 2.400000
v 0.000000 0.200000 2.400000
v -1.100000 0.400000 1.300000
v 0.000000 0.400000 1.300000
v 0.000000 0.300000 1.850000
v -0.550000 0.200000 2.400000
v -0.550000 0.400000 1.300000
v -1.100000 0.250000 2.125000
v 0.000000 0.250000 2.125000
v -0.550000 0.250000 2.125000
v 0.000000 0.350000 1.575000
v -1.100000 0.350000 1.575000
v -0.550000 0.350000 1.575000
v -0.275000 0.200000 2.400000
v -0.275000 0.400000 1.300000
v -0.275000 0.300000 1.850000
v -0.275000 0.250000 2.125000
v -0.275000 0.350000 1.575000
v -0.825000 0.200000 2.400000
v -0.825000 0.400000 1.300000
v -0.825000 0.300000 1.850000
v -0.825000 0.250000 2.125000
v -0.825000 0.350000 1.575000
v -0.825000 0.214570 2.118558
v -0.550000 0.214570 2.118558
v -0.825000 0.314570 1.568558
v -0.550000 0.314570 1.568558
v -0.275000 0.214570 2.118558
v -0.275000 0.314570 1.568558
v -0.275000 0.264570 1.843558
v -0.825000 0.264570 1.843558
vt 0.376196 0.451488
vt 0.462621 0.335675
vt 0.471377 0.474079
vt 0.456330 0.557713
vt 0.482132 0.545415
vt 0.482132 0.460247
vt 0.734680 0.460247
vt 0.734680 0.545415
vt 0.994982 0.852360
vt 0.996191 0.992133
vt 0.743702 0.993379
vt 0.742484 0.853489
vt 0.671543 0.426355
vt 0.671543 0.392463
vt 0.734680 0.392463
vt 0.734680 0.426355
vt 0.482132 0.607472
vt 0.734680 0.607472
vt 0.300683 0.543816
vt 0.411022 0.613110
vt 0.220978 0.631124
vt 0.352745 0.656405
vt 0.482132 0.659624
vt 0.734680 0.659624
vt 0.671543 0.358571
vt 0.671543 0.324680
vt 0.734680 0.324680
vt 0.734680 0.358571
vt 0.545269 0.358571
vt 0.545269 0.324680
vt 0.608406 0.324680
vt 0.608406 0.358571
vt 0.545269 0.460247
vt 0.545269 0.426355
vt 0.608406 0.426355
vt 0.608406 0.460247
vt 0.671543 0.460247
vt 0.734680 0.460247
vt 0.482132 0.392463
vt 0.482132 0.358571
vt 0.545269 0.392463
vt 0.482132 0.460247
vt 0.482132 0.426355
vt 0.482132 0.324680
vt 0.671543 0.358571
vt 0.608406 0.358571
vt 0.608406 0.426355
vt 0.545269 0.426355
vt 0.545269 0.392463
vt 0.545269 0.358571
vt 0.671543 0.392463
vt 0.671543 0.426355
vt 0.376196 0.451488
vt 0.456330 0.557713
vt 0.471377 0.474079
vt 0.462621 0.335675
vt 0.482132 0.545415
vt 0.482132 0.460247
vt 0.994982 0.852360
vt 0.996191 0.992133
vt 0.671543 0.426355
vt 0.671543 0.392463
vt 0.482132 0.607472
vt 0.300683 0.543816
vt 0.411022 0.613110
vt 0.220978 0.631124
vt 0.352745 0.656405
vt 0.482132 0.659624
vt 0.671543 0.358571
vt 0.671543 0.324680
vt 0.545269 0.358571
vt 0.608406 0.358571
vt 0.608406 0.324680
vt 0.545269 0.324680
vt 0.545269 0.460247
vt 0.608406 0.460247
vt 0.608406 0.426355
vt 0.545269 0.426355
vt 0.671543 0.460247
vt 0.482132 0.392463
vt 0.545269 0.392463
vt 0.482132 0.358571
vt 0.482132 0.460247
vt 0.482132 0.426355
vt 0.482132 0.324680
vt 0.608406 0.358571
vt 0.671543 0.358571
vt 0.608406 0.426355
vt 0.671543 0.426355
vt 0.671543 0.392463
vt 0.545269 0.358571
vt 0.545269 0.392463
vt 0.545269 0.426355
vn 0.9781 0.1956 0.0711
vn 0.0000 0.0000 1.0000
vn 0.0225 -0.9920 0.1240
vn 0.0000 0.9839 0.1789
vn 0.9959 0.0000 0.0905
vn 0.9561 -0.2882 0.0524
vn 0.0000 -0.7071 0.7071
vn 0.0000 -0.1789 0.9839
vn -1.0000 0.0000 0.0000
vn 1.0000 0.0000 0.0000
vn 0.0000 0.1789 -0.9839
vn -0.9781 0.1956 0.0711
vn -0.0225 -0.9920 0.1240
vn -0.9959 0.0000 0.0905
vn -0.9561 -0.2882 0.0524
usemtl Material
s off
f 7/1/1 3/2/1 1/3/1 6/4/1
f 6/5/2 1/6/2 38/7/2 45/8/2
f 5/9/3 2/10/3 39/11/3 43/12/3
f 21/13/4 20/14/4 54/15/4 58/16/4
f 8/17/2 6/5/2 45/8/2 48/18/2
f 9/19/5 7/1/5 6/4/5 8/20/5
f 5/21/6 9/19/6 8/20/6 2/22/6
f 2/23/7 8/17/7 48/18/7 39/24/7
f 22/25/4 19/26/4 53/27/4 60/28/4
f 27/29/4 24/30/4 13/31/4 17/32/4
f 23/33/4 26/34/4 15/35/4 12/36/4
f 18/37/4 21/13/4 58/16/4 51/38/4
f 20/14/4 22/25/4 60/28/4 54/15/4
f 12/36/4 15/35/4 21/13/4 18/37/4
f 17/32/4 13/31/4 19/26/4 22/25/4
f 4/39/4 16/40/4 27/29/4 25/41/4
f 10/42/4 14/43/4 26/34/4 23/33/4
f 14/43/4 4/39/4 25/41/4 26/34/4
f 16/40/4 11/44/4 24/30/4 27/29/4
f 17/32/8 22/25/8 33/45/8 31/46/8
f 29/47/4 28/48/4 35/49/4 30/50/4 31/46/4 33/45/4 34/51/4 32/52/4
f 26/34/9 25/41/9 35/49/9 28/48/9
f 22/25/10 20/14/10 34/51/10 33/45/10
f 15/35/11 26/34/11 28/48/11 29/47/11
f 25/41/9 27/29/9 30/50/9 35/49/9
f 21/13/11 15/35/11 29/47/11 32/52/11
f 27/29/8 17/32/8 31/46/8 30/50/8
f 20/14/10 21/13/10 32/52/10 34/51/10
f 46/53/12 44/54/12 36/55/12 40/56/12
f 44/57/2 45/8/2 38/7/2 36/58/2
f 42/59/13 43/12/13 39/11/13 37/60/13
f 66/61/4 58/16/4 54/15/4 65/62/4
f 47/63/2 48/18/2 45/8/2 44/57/2
f 49/64/14 47/65/14 44/54/14 46/53/14
f 42/66/15 37/67/15 47/65/15 49/64/15
f 37/68/7 39/24/7 48/18/7 47/63/7
f 67/69/4 60/28/4 53/27/4 64/70/4
f 72/71/4 62/72/4 56/73/4 69/74/4
f 68/75/4 55/76/4 59/77/4 71/78/4
f 63/79/4 51/38/4 58/16/4 66/61/4
f 65/62/4 54/15/4 60/28/4 67/69/4
f 55/76/4 63/79/4 66/61/4 59/77/4
f 62/72/4 67/69/4 64/70/4 56/73/4
f 41/80/4 70/81/4 72/71/4 61/82/4
f 50/83/4 68/75/4 71/78/4 57/84/4
f 57/84/4 71/78/4 70/81/4 41/80/4
f 61/82/4 72/71/4 69/74/4 52/85/4
f 62/72/8 76/86/8 78/87/8 67/69/8
f 74/88/4 77/89/4 79/90/4 78/87/4 76/86/4 75/91/4 80/92/4 73/93/4
f 71/78/10 73/93/10 80/92/10 70/81/10
f 67/69/9 78/87/9 79/90/9 65/62/9
f 59/77/11 74/88/11 73/93/11 71/78/11
f 70/81/10 80/92/10 75/91/10 72/71/10
f 66/61/11 77/89/11 74/88/11 59/77/11
f 72/71/8 75/91/8 76/86/8 62/72/8
f 65/62/9 79/90/9 77/89/9 66/61/9
