# Blender v2.77 (sub 0) OBJ File: ''
# www.blender.org
mtllib antenna.mtl
o 5dbf3dbe5f1e3f15fa9f1ecd_ID3
v 0.102406 0.080000 -0.125000
v -0.127594 0.080000 -0.125000
v 0.017406 0.080000 -0.005000
v 0.027407 0.080000 -0.005000
v 0.102406 0.080000 0.125000
v 0.027407 0.080000 0.005000
v 0.017406 0.080000 0.005000
v -0.042593 0.080000 -0.005000
v -0.042593 0.080000 0.005000
v -0.127594 0.080000 0.125000
v -0.052593 0.080000 0.005000
v -0.052593 0.080000 -0.005000
v 0.102406 0.000000 0.125000
v 0.102406 0.000000 -0.125000
v 0.102406 0.080000 -0.125000
v 0.102406 0.080000 0.125000
v 0.102406 0.000000 0.125000
v -0.127594 0.000000 0.125000
v -0.127594 0.000000 -0.125000
v 0.102406 0.000000 -0.125000
v -0.127594 0.000000 0.125000
v -0.127594 0.080000 0.125000
v -0.127594 0.080000 -0.125000
v -0.127594 0.000000 -0.125000
v 0.102406 0.080000 -0.125000
v 0.102406 0.000000 -0.125000
v -0.127594 0.000000 -0.125000
v -0.127594 0.080000 -0.125000
v 0.102406 0.080000 0.125000
v -0.127594 0.080000 0.125000
v -0.127594 0.000000 0.125000
v 0.102406 0.000000 0.125000
v 0.027407 0.080000 0.005000
v 0.027407 0.080000 -0.005000
v 0.027407 0.580000 -0.005000
v 0.027407 0.580000 0.005000
v 0.017406 0.080000 0.005000
v 0.017406 0.580000 0.005000
v 0.017406 0.580000 -0.005000
v 0.017406 0.080000 -0.005000
v 0.027407 0.580000 0.005000
v 0.027407 0.580000 -0.005000
v 0.017406 0.580000 -0.005000
v 0.017406 0.580000 0.005000
v 0.027407 0.580000 -0.005000
v 0.017406 0.080000 -0.005000
v 0.017406 0.580000 -0.005000
v 0.027407 0.080000 -0.005000
v 0.027407 0.580000 0.005000
v 0.017406 0.580000 0.005000
v 0.017406 0.080000 0.005000
v 0.027407 0.080000 0.005000
v -0.042593 0.080000 0.005000
v -0.042593 0.080000 -0.005000
v -0.042593 0.330000 -0.005000
v -0.042593 0.330000 0.005000
v -0.052593 0.080000 0.005000
v -0.052593 0.330000 0.005000
v -0.052593 0.330000 -0.005000
v -0.052593 0.080000 -0.005000
v -0.042593 0.330000 0.005000
v -0.042593 0.330000 -0.005000
v -0.052593 0.330000 -0.005000
v -0.052593 0.330000 0.005000
v -0.042593 0.330000 -0.005000
v -0.052593 0.080000 -0.005000
v -0.052593 0.330000 -0.005000
v -0.042593 0.080000 -0.005000
v -0.042593 0.330000 0.005000
v -0.052593 0.330000 0.005000
v -0.052593 0.080000 0.005000
v -0.042593 0.080000 0.005000
vn 0.0000 1.0000 0.0000
vn 1.0000 0.0000 0.0000
vn 0.0000 -1.0000 0.0000
vn -1.0000 0.0000 0.0000
vn 0.0000 0.0000 -1.0000
vn 0.0000 0.0000 1.0000
usemtl ID10.002
s off
f 1//1 2//1 3//1
f 4//1 1//1 3//1
f 5//1 1//1 4//1
f 5//1 6//1 7//1
f 5//1 4//1 6//1
f 8//1 7//1 3//1
f 7//1 9//1 5//1
f 8//1 3//1 2//1
f 10//1 11//1 2//1
f 12//1 2//1 11//1
f 2//1 12//1 8//1
f 5//1 9//1 10//1
f 7//1 8//1 9//1
f 10//1 9//1 11//1
f 13//2 14//2 15//2
f 13//2 15//2 16//2
f 17//3 18//3 19//3
f 19//3 20//3 17//3
f 21//4 22//4 23//4
f 23//4 24//4 21//4
f 25//5 26//5 27//5
f 25//5 27//5 28//5
f 29//6 30//6 31//6
f 31//6 32//6 29//6
usemtl Material.001
f 33//2 34//2 35//2
f 33//2 35//2 36//2
f 37//4 38//4 39//4
f 39//4 40//4 37//4
f 41//1 42//1 43//1
f 41//1 43//1 44//1
f 45//5 46//5 47//5
f 46//5 45//5 48//5
f 49//6 50//6 51//6
f 51//6 52//6 49//6
f 53//2 54//2 55//2
f 53//2 55//2 56//2
f 57//4 58//4 59//4
f 59//4 60//4 57//4
f 61//1 62//1 63//1
f 61//1 63//1 64//1
f 65//5 66//5 67//5
f 66//5 65//5 68//5
f 69//6 70//6 71//6
f 71//6 72//6 69//6
