# Blender v2.77 (sub 0) OBJ File: ''
# www.blender.org
mtllib hospitalRoof.mtl
o 5dc0abec2853681737a43a94_ID3.004
v 0.503095 0.078408 -0.120000
v 0.643094 0.078408 -0.230000
v 0.623094 0.078408 -0.230000
v 0.473095 0.078408 0.165685
v 0.503095 0.078408 0.125000
v 0.473095 0.078408 0.125000
v 0.707409 0.078408 -0.400000
v 0.473095 0.078408 -0.165685
v 0.623094 0.078408 -0.250000
v 0.503095 0.078408 0.120000
v 0.473095 0.078408 -0.120000
v 0.473095 0.078408 0.120000
v 0.643094 0.078408 0.230000
v 1.038779 0.078408 0.400000
v 1.103094 0.078408 0.250000
v 1.103094 0.078408 -0.230000
v 1.273094 0.078408 0.165685
v 1.123094 0.078408 -0.230000
v 0.473095 0.078408 -0.125000
v 0.503095 0.078408 -0.125000
v 1.038779 0.078408 -0.400000
v 1.123094 0.078408 -0.250000
v 1.273094 0.078408 -0.165685
v 0.623094 0.078408 0.230000
v 1.103094 0.078408 0.230000
v 1.123094 0.078408 0.230000
v 1.123094 0.078408 0.250000
v 0.643094 0.078408 -0.250000
v 1.103094 0.078408 -0.250000
v 0.643094 0.078408 0.250000
v 0.623094 0.078408 0.250000
v 0.707409 0.078408 0.400000
v 0.388843 -0.001592 -0.120000
v 0.358843 -0.001592 -0.120000
v 0.382050 0.014658 -0.120000
v 0.412050 0.014658 -0.120000
v 0.382050 0.014658 0.120000
v 0.358843 -0.001592 0.120000
v 0.388843 -0.001592 0.120000
v 0.412050 0.014658 0.120000
v 0.389191 0.019658 -0.125000
v 0.412398 0.035908 -0.120000
v 0.389191 0.019658 -0.120000
v 0.412398 0.035908 -0.125000
v 0.389191 0.019658 0.120000
v 0.412398 0.035908 0.125000
v 0.389191 0.019658 0.125000
v 0.412398 0.035908 0.120000
v 0.449887 0.062158 -0.125000
v 0.473095 0.078408 -0.120000
v 0.449887 0.062158 -0.120000
v 0.473095 0.078408 -0.125000
v 0.449887 0.062158 0.120000
v 0.473095 0.078408 0.125000
v 0.449887 0.062158 0.125000
v 0.473095 0.078408 0.120000
v 0.449539 0.040908 -0.120000
v 0.419539 0.040908 -0.120000
v 0.442746 0.057158 -0.120000
v 0.472746 0.057158 -0.120000
v 0.442746 0.057158 0.120000
v 0.419539 0.040908 0.120000
v 0.449539 0.040908 0.120000
v 0.472746 0.057158 0.120000
v 0.442746 0.057158 -0.120000
v 0.419539 0.040908 -0.120000
v 0.419539 0.040908 -0.125000
v 0.442746 0.057158 -0.125000
v 0.412398 0.035908 -0.120000
v 0.442398 0.035908 -0.120000
v 0.419191 0.019658 -0.120000
v 0.389191 0.019658 -0.120000
v 0.442746 0.057158 0.125000
v 0.419539 0.040908 0.125000
v 0.419539 0.040908 0.120000
v 0.442746 0.057158 0.120000
v 0.419191 0.019658 0.120000
v 0.412398 0.035908 0.120000
v 0.389191 0.019658 0.120000
v 0.442398 0.035908 0.120000
v 0.707409 0.088408 -0.400000
v 0.673997 0.088408 -0.235000
v 0.473095 0.088408 -0.165685
v 1.055872 0.088408 0.231022
v 1.038779 0.088408 0.400000
v 0.957038 0.088408 0.231022
v 0.772526 0.088408 -0.235000
v 0.957038 0.088408 -0.235000
v 0.772526 0.088408 -0.033863
v 0.957038 0.088408 -0.033863
v 1.273094 0.088408 0.165685
v 1.055872 0.088408 -0.235000
v 0.673997 0.088408 0.231022
v 0.473095 0.088408 0.165685
v 0.707409 0.088408 0.400000
v 1.038779 0.088408 -0.400000
v 1.273094 0.088408 -0.165685
v 0.772526 0.088408 0.231022
v 0.772526 0.088408 0.048346
v 0.957038 0.088408 0.048346
v 0.473095 0.078408 0.165685
v 0.473095 0.088408 0.165685
v 0.707409 0.088408 0.400000
v 0.707409 0.078408 0.400000
v 0.707409 0.088408 0.400000
v 1.038779 0.088408 0.400000
v 1.038779 0.078408 0.400000
v 0.707409 0.078408 0.400000
v 1.038779 0.078408 0.400000
v 1.038779 0.088408 0.400000
v 1.273094 0.088408 0.165685
v 1.273094 0.078408 0.165685
v 1.273094 0.088408 0.165685
v 1.273094 0.088408 -0.165685
v 1.273094 0.078408 -0.165685
v 1.273094 0.078408 0.165685
v 1.273094 0.078408 -0.165685
v 1.273094 0.088408 -0.165685
v 1.038779 0.088408 -0.400000
v 1.038779 0.078408 -0.400000
v 0.707409 0.078408 -0.400000
v 1.038779 0.088408 -0.400000
v 0.707409 0.088408 -0.400000
v 1.038779 0.078408 -0.400000
v 0.707409 0.078408 -0.400000
v 0.707409 0.088408 -0.400000
v 0.473095 0.088408 -0.165685
v 0.473095 0.078408 -0.165685
v 0.473095 0.078408 0.125000
v 0.473095 0.088408 0.165685
v 0.473095 0.078408 0.165685
v 0.473095 0.078408 0.120000
v 0.473095 0.088408 -0.165685
v 0.473095 0.078408 -0.120000
v 0.473095 0.078408 -0.165685
v 0.473095 0.078408 -0.125000
v 0.772526 0.088408 -0.235000
v 0.673997 0.087408 -0.235000
v 0.673997 0.088408 -0.235000
v 0.772526 0.087408 -0.235000
v 0.673997 0.088408 -0.235000
v 0.673997 0.087408 0.231022
v 0.673997 0.088408 0.231022
v 0.673997 0.087408 -0.235000
v 0.673997 0.088408 0.231022
v 0.673997 0.087408 0.231022
v 0.772526 0.087408 0.231022
v 0.772526 0.088408 0.231022
v 0.772526 0.088408 0.231022
v 0.772526 0.087408 0.231022
v 0.772526 0.087408 0.048346
v 0.772526 0.088408 0.048346
v 0.772526 0.088408 0.048346
v 0.772526 0.087408 0.048346
v 0.957038 0.087408 0.048346
v 0.957038 0.088408 0.048346
v 0.957038 0.088408 0.048346
v 0.957038 0.087408 0.231022
v 0.957038 0.088408 0.231022
v 0.957038 0.087408 0.048346
v 0.957038 0.088408 0.231022
v 0.957038 0.087408 0.231022
v 1.055872 0.087408 0.231022
v 1.055872 0.088408 0.231022
v 1.055872 0.088408 0.231022
v 1.055872 0.087408 0.231022
v 1.055872 0.087408 -0.235000
v 1.055872 0.088408 -0.235000
v 1.055872 0.088408 -0.235000
v 0.957038 0.087408 -0.235000
v 0.957038 0.088408 -0.235000
v 1.055872 0.087408 -0.235000
v 0.957038 0.088408 -0.235000
v 0.957038 0.087408 -0.033863
v 0.957038 0.088408 -0.033863
v 0.957038 0.087408 -0.235000
v 0.957038 0.088408 -0.033863
v 0.772526 0.087408 -0.033863
v 0.772526 0.088408 -0.033863
v 0.957038 0.087408 -0.033863
v 0.772526 0.088408 -0.033863
v 0.772526 0.087408 -0.033863
v 0.772526 0.087408 -0.235000
v 0.772526 0.088408 -0.235000
v 0.772526 0.087408 0.048346
v 0.772526 0.087408 0.231022
v 0.673997 0.087408 0.231022
v 0.957038 0.087408 0.048346
v 1.055872 0.087408 0.231022
v 0.957038 0.087408 0.231022
v 0.673997 0.087408 -0.235000
v 0.772526 0.087408 -0.033863
v 0.957038 0.087408 -0.033863
v 1.055872 0.087408 -0.235000
v 0.957038 0.087408 -0.235000
v 0.772526 0.087408 -0.235000
v 0.388843 -0.001592 -0.120000
v 0.412050 0.014658 -0.120000
v 0.388843 -0.001592 -0.125000
v 0.479887 0.062158 0.120000
v 0.472746 0.057158 0.120000
v 0.503095 0.078408 0.125000
v 0.503095 0.078408 -0.120000
v 0.503095 0.078408 -0.125000
v 0.479887 0.062158 -0.120000
v 0.472746 0.057158 -0.120000
v 0.449539 0.040908 -0.120000
v 0.388843 -0.001592 0.125000
v 0.449539 0.040908 0.120000
v 0.503095 0.078408 0.120000
v 0.412050 0.014658 0.120000
v 0.388843 -0.001592 0.120000
v 0.442398 0.035908 -0.120000
v 0.442398 0.035908 0.120000
v 0.419191 0.019658 -0.120000
v 0.419191 0.019658 0.120000
v 0.358843 -0.001592 -0.120000
v 0.388843 -0.001592 -0.125000
v 0.358843 -0.001592 -0.125000
v 0.388843 -0.001592 -0.120000
v 0.382050 0.014658 -0.120000
v 0.358843 -0.001592 -0.120000
v 0.358843 -0.001592 -0.125000
v 0.382050 0.014658 -0.125000
v 0.382050 0.014658 -0.125000
v 0.389191 0.019658 -0.125000
v 0.382050 0.019658 -0.125000
v 0.388843 -0.001592 -0.125000
v 0.412398 0.040908 -0.125000
v 0.412398 0.035908 -0.125000
v 0.419539 0.040908 -0.125000
v 0.449887 0.062158 -0.125000
v 0.442746 0.057158 -0.125000
v 0.503095 0.078408 -0.125000
v 0.442746 0.062158 -0.125000
v 0.473095 0.078408 -0.125000
v 0.358843 -0.001592 -0.125000
v 0.473095 0.078408 -0.120000
v 0.503095 0.078408 -0.120000
v 0.479887 0.062158 -0.120000
v 0.449887 0.062158 -0.120000
v 0.358843 -0.001592 0.125000
v 0.388843 -0.001592 0.125000
v 0.388843 -0.001592 0.120000
v 0.358843 -0.001592 0.120000
v 0.382050 0.014658 0.125000
v 0.358843 -0.001592 0.125000
v 0.358843 -0.001592 0.120000
v 0.382050 0.014658 0.120000
v 0.419539 0.040908 0.125000
v 0.503095 0.078408 0.125000
v 0.388843 -0.001592 0.125000
v 0.389191 0.019658 0.125000
v 0.412398 0.035908 0.125000
v 0.382050 0.014658 0.125000
v 0.382050 0.019658 0.125000
v 0.358843 -0.001592 0.125000
v 0.449887 0.062158 0.125000
v 0.473095 0.078408 0.125000
v 0.442746 0.057158 0.125000
v 0.442746 0.062158 0.125000
v 0.412398 0.040908 0.125000
v 0.479887 0.062158 0.120000
v 0.473095 0.078408 0.120000
v 0.449887 0.062158 0.120000
v 0.503095 0.078408 0.120000
v 0.442398 0.035908 0.120000
v 0.442398 0.035908 -0.120000
v 0.412398 0.035908 -0.120000
v 0.412398 0.035908 0.120000
v 0.449539 0.040908 0.120000
v 0.419539 0.040908 0.120000
v 0.419539 0.040908 -0.120000
v 0.412398 0.040908 -0.125000
v 0.419539 0.040908 -0.125000
v 0.412398 0.040908 0.125000
v 0.449539 0.040908 -0.120000
v 0.419539 0.040908 0.125000
v 0.412398 0.040908 -0.125000
v 0.412398 0.035908 -0.120000
v 0.412398 0.035908 -0.125000
v 0.412398 0.040908 0.125000
v 0.412398 0.035908 0.125000
v 0.412398 0.035908 0.120000
v 0.472746 0.057158 0.120000
v 0.472746 0.057158 -0.120000
v 0.442746 0.057158 -0.120000
v 0.442746 0.057158 0.120000
v 0.479887 0.062158 0.120000
v 0.449887 0.062158 0.120000
v 0.449887 0.062158 -0.120000
v 0.442746 0.062158 -0.125000
v 0.449887 0.062158 -0.125000
v 0.442746 0.062158 0.125000
v 0.479887 0.062158 -0.120000
v 0.449887 0.062158 0.125000
v 0.442746 0.062158 -0.125000
v 0.442746 0.057158 -0.120000
v 0.442746 0.057158 -0.125000
v 0.442746 0.062158 0.125000
v 0.442746 0.057158 0.125000
v 0.442746 0.057158 0.120000
v 0.412050 0.014658 0.120000
v 0.412050 0.014658 -0.120000
v 0.382050 0.014658 -0.120000
v 0.382050 0.014658 0.120000
v 0.419191 0.019658 0.120000
v 0.389191 0.019658 0.120000
v 0.389191 0.019658 -0.120000
v 0.382050 0.019658 -0.125000
v 0.389191 0.019658 -0.125000
v 0.382050 0.019658 0.125000
v 0.419191 0.019658 -0.120000
v 0.389191 0.019658 0.125000
v 0.382050 0.019658 -0.125000
v 0.382050 0.014658 -0.120000
v 0.382050 0.014658 -0.125000
v 0.382050 0.019658 0.125000
v 0.382050 0.014658 0.125000
v 0.382050 0.014658 0.120000
v 1.103094 -0.001592 -0.230000
v 1.123094 -0.001592 -0.230000
v 1.123094 -0.001592 -0.250000
v 1.103094 -0.001592 -0.250000
v 1.123094 -0.001592 -0.230000
v 1.123094 0.078408 -0.230000
v 1.123094 0.078408 -0.250000
v 1.123094 -0.001592 -0.250000
v 1.103094 0.078408 -0.250000
v 1.103094 -0.001592 -0.250000
v 1.123094 -0.001592 -0.250000
v 1.123094 0.078408 -0.250000
v 1.103094 0.078408 -0.250000
v 1.103094 0.078408 -0.230000
v 1.103094 -0.001592 -0.230000
v 1.103094 -0.001592 -0.250000
v 1.103094 0.078408 -0.230000
v 1.123094 0.078408 -0.230000
v 1.123094 -0.001592 -0.230000
v 1.103094 -0.001592 -0.230000
v 0.623094 -0.001592 -0.230000
v 0.643094 -0.001592 -0.230000
v 0.643094 -0.001592 -0.250000
v 0.623094 -0.001592 -0.250000
v 0.623094 -0.001592 -0.250000
v 0.643094 0.078408 -0.250000
v 0.623094 0.078408 -0.250000
v 0.643094 -0.001592 -0.250000
v 0.623094 0.078408 -0.230000
v 0.623094 -0.001592 -0.230000
v 0.623094 -0.001592 -0.250000
v 0.623094 0.078408 -0.250000
v 0.623094 -0.001592 -0.230000
v 0.643094 0.078408 -0.230000
v 0.643094 -0.001592 -0.230000
v 0.623094 0.078408 -0.230000
v 0.643094 0.078408 -0.230000
v 0.643094 0.078408 -0.250000
v 0.643094 -0.001592 -0.250000
v 0.643094 -0.001592 -0.230000
v 0.623094 -0.001592 0.250000
v 0.643094 -0.001592 0.230000
v 0.623094 -0.001592 0.230000
v 0.643094 -0.001592 0.250000
v 0.623094 -0.001592 0.250000
v 0.623094 0.078408 0.230000
v 0.623094 0.078408 0.250000
v 0.623094 -0.001592 0.230000
v 0.623094 -0.001592 0.250000
v 0.643094 0.078408 0.250000
v 0.643094 -0.001592 0.250000
v 0.623094 0.078408 0.250000
v 0.643094 -0.001592 0.250000
v 0.643094 0.078408 0.230000
v 0.643094 -0.001592 0.230000
v 0.643094 0.078408 0.250000
v 0.623094 -0.001592 0.230000
v 0.643094 0.078408 0.230000
v 0.623094 0.078408 0.230000
v 0.643094 -0.001592 0.230000
v 1.103094 -0.001592 0.250000
v 1.123094 -0.001592 0.230000
v 1.103094 -0.001592 0.230000
v 1.123094 -0.001592 0.250000
v 1.103094 0.078408 0.250000
v 1.123094 0.078408 0.250000
v 1.123094 -0.001592 0.250000
v 1.103094 -0.001592 0.250000
v 1.103094 -0.001592 0.230000
v 1.103094 0.078408 0.230000
v 1.103094 0.078408 0.250000
v 1.103094 -0.001592 0.250000
v 1.123094 0.078408 0.250000
v 1.123094 0.078408 0.230000
v 1.123094 -0.001592 0.230000
v 1.123094 -0.001592 0.250000
v 1.103094 0.078408 0.230000
v 1.103094 -0.001592 0.230000
v 1.123094 -0.001592 0.230000
v 1.123094 0.078408 0.230000
vn 0.0000 0.0000 1.0000
vn 0.0000 0.0000 -1.0000
vn -0.5736 0.8191 0.0000
vn -0.5736 0.8192 0.0000
vn 1.0000 0.0000 0.0000
vn -1.0000 0.0000 0.0000
vn 0.5736 -0.8191 0.0000
vn 0.5736 -0.8192 0.0000
vn 0.5736 -0.8191 0.0002
vn 0.5736 -0.8191 -0.0002
vn 0.5735 -0.8192 -0.0002
vn 0.5736 -0.8192 0.0001
vn 0.5735 -0.8192 -0.0003
vn 0.5736 -0.8192 -0.0001
vn 0.5736 -0.8191 0.0001
vn 0.5736 -0.8191 -0.0001
vn 0.0000 -1.0000 0.0000
vn 0.0000 1.0000 0.0000
vn -0.7071 0.0000 0.7071
vn 0.7071 0.0000 0.7071
vn 0.7071 0.0000 -0.7071
vn -0.7071 0.0000 -0.7071
usemtl ID10.004
s off
f 33//1 35//1 34//1
f 33//1 36//1 35//1
f 37//2 39//2 38//2
f 37//2 40//2 39//2
f 41//3 43//3 42//3
f 41//3 42//3 44//3
f 45//3 47//3 46//3
f 45//3 46//3 48//3
f 49//4 51//4 50//4
f 49//4 50//4 52//4
f 53//4 55//4 54//4
f 53//4 54//4 56//4
f 57//1 59//1 58//1
f 57//1 60//1 59//1
f 61//2 63//2 62//2
f 61//2 64//2 63//2
f 65//3 67//3 66//3
f 67//3 65//3 68//3
f 69//1 71//1 70//1
f 69//1 72//1 71//1
f 73//3 75//3 74//3
f 75//3 73//3 76//3
f 77//2 79//2 78//2
f 78//2 80//2 77//2
f 137//1 139//1 138//1
f 137//1 138//1 140//1
f 141//5 143//5 142//5
f 141//5 142//5 144//5
f 145//2 147//2 146//2
f 147//2 145//2 148//2
f 149//6 151//6 150//6
f 151//6 149//6 152//6
f 153//2 155//2 154//2
f 155//2 153//2 156//2
f 157//5 159//5 158//5
f 157//5 158//5 160//5
f 161//2 163//2 162//2
f 163//2 161//2 164//2
f 165//6 167//6 166//6
f 167//6 165//6 168//6
f 169//1 171//1 170//1
f 169//1 170//1 172//1
f 173//5 175//5 174//5
f 173//5 174//5 176//5
f 177//1 179//1 178//1
f 177//1 178//1 180//1
f 181//6 183//6 182//6
f 183//6 181//6 184//6
f 197//7 199//7 198//7
f 200//8 202//8 201//8
f 203//8 205//8 204//8
f 206//9 207//9 204//9
f 206//8 204//8 205//8
f 206//8 205//8 201//8
f 208//8 209//8 202//8
f 205//8 200//8 201//8
f 200//8 210//8 202//8
f 211//7 208//7 212//7
f 209//10 201//10 202//10
f 207//11 213//11 204//11
f 199//12 204//12 213//12
f 207//8 209//8 214//8
f 214//8 213//8 207//8
f 208//13 214//13 209//13
f 198//12 199//12 215//12
f 211//8 198//8 215//8
f 211//8 215//8 216//8
f 208//14 211//14 216//14
f 208//15 216//15 214//15
f 215//16 199//16 213//16
f 217//17 219//17 218//17
f 217//17 218//17 220//17
f 221//3 223//3 222//3
f 223//3 221//3 224//3
f 225//2 227//2 226//2
f 226//2 228//2 225//2
f 229//2 231//2 230//2
f 228//2 230//2 231//2
f 232//2 234//2 233//2
f 235//2 232//2 233//2
f 233//2 234//2 231//2
f 228//2 231//2 234//2
f 228//2 226//2 230//2
f 232//2 236//2 234//2
f 225//2 228//2 237//2
f 238//1 240//1 239//1
f 238//1 241//1 240//1
f 242//17 244//17 243//17
f 244//17 242//17 245//17
f 246//3 248//3 247//3
f 248//3 246//3 249//3
f 250//1 252//1 251//1
f 252//1 254//1 253//1
f 253//1 255//1 252//1
f 255//1 253//1 256//1
f 252//1 255//1 257//1
f 258//1 251//1 259//1
f 258//1 261//1 260//1
f 254//1 250//1 262//1
f 251//1 260//1 250//1
f 251//1 258//1 260//1
f 250//1 254//1 252//1
f 263//2 265//2 264//2
f 264//2 266//2 263//2
f 267//17 269//17 268//17
f 267//17 270//17 269//17
f 271//18 273//18 272//18
f 274//18 273//18 275//18
f 274//18 276//18 272//18
f 277//18 273//18 271//18
f 274//18 272//18 273//18
f 276//18 278//18 272//18
f 279//6 281//6 280//6
f 279//6 280//6 282//6
f 283//6 282//6 284//6
f 282//6 280//6 284//6
f 285//17 287//17 286//17
f 285//17 288//17 287//17
f 289//18 291//18 290//18
f 292//18 291//18 293//18
f 292//18 294//18 290//18
f 295//18 291//18 289//18
f 292//18 290//18 291//18
f 294//18 296//18 290//18
f 297//6 299//6 298//6
f 297//6 298//6 300//6
f 301//6 300//6 302//6
f 300//6 298//6 302//6
f 303//17 305//17 304//17
f 303//17 306//17 305//17
f 307//18 309//18 308//18
f 310//18 309//18 311//18
f 310//18 312//18 308//18
f 313//18 309//18 307//18
f 310//18 308//18 309//18
f 312//18 314//18 308//18
f 315//6 317//6 316//6
f 315//6 316//6 318//6
f 319//6 318//6 320//6
f 318//6 316//6 320//6
f 321//17 323//17 322//17
f 323//17 321//17 324//17
f 325//5 327//5 326//5
f 325//5 328//5 327//5
f 329//2 331//2 330//2
f 331//2 329//2 332//2
f 333//6 335//6 334//6
f 335//6 333//6 336//6
f 337//1 339//1 338//1
f 337//1 340//1 339//1
f 341//17 343//17 342//17
f 343//17 341//17 344//17
f 345//2 347//2 346//2
f 346//2 348//2 345//2
f 349//6 351//6 350//6
f 351//6 349//6 352//6
f 353//1 355//1 354//1
f 353//1 354//1 356//1
f 357//5 359//5 358//5
f 357//5 360//5 359//5
f 361//17 363//17 362//17
f 361//17 362//17 364//17
f 365//6 367//6 366//6
f 366//6 368//6 365//6
f 369//1 371//1 370//1
f 369//1 370//1 372//1
f 373//5 375//5 374//5
f 373//5 374//5 376//5
f 377//2 379//2 378//2
f 378//2 380//2 377//2
f 381//17 383//17 382//17
f 381//17 382//17 384//17
f 385//1 387//1 386//1
f 385//1 388//1 387//1
f 389//6 391//6 390//6
f 389//6 392//6 391//6
f 393//5 395//5 394//5
f 395//5 393//5 396//5
f 397//2 399//2 398//2
f 399//2 397//2 400//2
usemtl Material.003
f 1//17 3//17 2//17
f 4//17 6//17 5//17
f 7//17 9//17 8//17
f 10//17 12//17 11//17
f 13//17 15//17 14//17
f 16//17 18//17 17//17
f 19//17 8//17 20//17
f 1//17 20//17 3//17
f 21//17 23//17 22//17
f 11//17 1//17 10//17
f 4//17 5//17 24//17
f 25//17 13//17 2//17
f 25//17 15//17 13//17
f 17//17 27//17 26//17
f 7//17 16//17 28//17
f 18//17 23//17 17//17
f 15//17 27//17 14//17
f 14//17 27//17 17//17
f 1//17 13//17 10//17
f 2//17 28//17 16//17
f 13//17 24//17 10//17
f 16//17 17//17 26//17
f 20//17 8//17 3//17
f 3//17 8//17 9//17
f 28//17 9//17 7//17
f 18//17 22//17 23//17
f 26//17 25//17 16//17
f 2//17 16//17 25//17
f 29//17 16//17 7//17
f 7//17 21//17 29//17
f 21//17 22//17 29//17
f 5//17 10//17 24//17
f 30//17 13//17 14//17
f 13//17 1//17 2//17
f 31//17 4//17 24//17
f 14//17 32//17 30//17
f 4//17 31//17 32//17
f 32//17 31//17 30//17
f 81//18 83//18 82//18
f 84//18 86//18 85//18
f 87//18 81//18 82//18
f 88//18 81//18 87//18
f 89//18 90//18 87//18
f 91//18 92//18 84//18
f 83//18 94//18 93//18
f 95//18 93//18 94//18
f 83//18 93//18 82//18
f 81//18 88//18 96//18
f 85//18 86//18 95//18
f 97//18 96//18 92//18
f 97//18 92//18 91//18
f 87//18 90//18 88//18
f 96//18 88//18 92//18
f 85//18 91//18 84//18
f 98//18 95//18 86//18
f 86//18 100//18 99//18
f 86//18 99//18 98//18
f 93//18 95//18 98//18
f 101//19 103//19 102//19
f 101//19 104//19 103//19
f 105//1 107//1 106//1
f 105//1 108//1 107//1
f 109//20 111//20 110//20
f 109//20 112//20 111//20
f 113//5 115//5 114//5
f 113//5 116//5 115//5
f 117//21 119//21 118//21
f 117//21 120//21 119//21
f 121//2 123//2 122//2
f 122//2 124//2 121//2
f 125//22 127//22 126//22
f 125//22 128//22 127//22
f 129//6 131//6 130//6
f 132//6 129//6 130//6
f 133//6 134//6 132//6
f 130//6 133//6 132//6
f 135//6 136//6 133//6
f 133//6 136//6 134//6
usemtl Material.004
f 185//18 187//18 186//18
f 188//18 190//18 189//18
f 187//18 192//18 191//18
f 185//18 192//18 187//18
f 193//18 189//18 194//18
f 193//18 192//18 188//18
f 189//18 193//18 188//18
f 194//18 195//18 193//18
f 188//18 192//18 185//18
f 191//18 192//18 196//18
