# Made using Asset Forge (www.assetforge.io) version 1.3 

mtllib car-4.mtl 

g windshield_truck_40

v 0.5 0 -0.5
v 0.5 0 -1.5
v -0.5 0 -0.5
v -0.5 0 -1.5
v 0.5 0.2323053 -1.5
v 0.5 0.2323053 -0.5
v -0.5 0.2323053 -1.5
v -0.5 0.2323053 -0.5
v 0.4242863 0.3 -0.91
v 0.4242863 0.3 -0.5
v -0.4242863 0.3 -0.91
v -0.4242863 0.3 -0.5
v 0.5 0.5337144 -0.91
v 0.5 0.5337144 -1.5
v 0.5 0.5337144 -0.5
v -0.5 0.5337144 -1.5
v -0.5 0.5337144 -0.91
v -0.5 0.5337144 -0.5
v 0.415 0.8 -1.32
v 0.415 0.8 -0.91
v -0.415 0.8 -1.32
v -0.415 0.8 -0.91
v -0.4226768 0.5337144 -1.5
v -0.3674255 0.753402 -1.351499
v 0.3674255 0.753402 -1.351499
v 0.4226768 0.5337144 -1.5
v 0.4146985 0.546761 -1.444374
v -0.4146985 0.546761 -1.444374
v 0.4242863 0.5849969 -0.91
v 0.3720257 0.7487175 -0.96
v 0.3720257 0.7487175 -0.91
v -0.3720257 0.7487175 -0.91
v -0.3720257 0.7487175 -0.96
v -0.4242863 0.5849969 -0.91
v 0.4242863 0.5337144 -0.91
v -0.4242863 0.5337144 -0.91
v -0.4862994 0.5766351 -1.413466
v -0.4862994 0.5766351 -0.9596677
v -0.4287006 0.7570792 -0.9596677
v -0.4287006 0.7570792 -1.291492
v 0.4862994 0.5766351 -1.413466
v 0.4287006 0.7570792 -1.291492
v 0.4287006 0.7570792 -0.9596677
v 0.4862994 0.5766351 -0.9596677
v 0.3902525 0.7471594 -0.9596677
v 0.3902525 0.7471594 -1.291492
v 0.4478513 0.5667154 -0.9596677
v 0.4478513 0.5667154 -1.413466
v -0.4478513 0.5667154 -1.413466
v -0.3902525 0.7471594 -1.291492
v -0.3902525 0.7471594 -0.9596677
v -0.4478513 0.5667154 -0.9596677
v -0.4242863 0.5337144 -0.5
v 0.4242863 0.5337144 -0.5
vn 0 -1 0
vn 1 0 0
vn -1 0 0
vn 0 1 0
vn 0 0.5600224 -0.8284774
vn 0 0.5600225 -0.8284774
vn 0 0.4867847 -0.873522
vn 0 0.5312636 -0.8472065
vn 0 0.5600226 -0.8284773
vn 0 0.5600225 -0.8284775
vn -0.9787925 -0.1797716 -0.09822088
vn 0.9787926 -0.1797716 -0.09822088
vn -0.9526435 -0.3040894 0
vn 0.9526435 -0.3040894 0
vn 0 0 1
vn 0 0.04195046 0.9991197
vn 0 0.1180747 0.9930047
vn -0.98809 0.1538775 0
vn -0.9526435 0.3040895 0
vn -0.9787841 0.2048941 0
vn -0.9526435 0.3040895 0
vn -0.9526435 0.3040896 0
vn -0.9526435 0.3040895 0
vn 0.9787841 0.2048941 0
vn 0.9526435 0.3040895 0
vn 0.9526435 0.3040895 0
vn 0.9526435 0.3040895 0
vn 0.9526435 0.3040896 0
vn 0.98809 0.1538774 0
vn 0.2498238 -0.9682913 0
vn 0 0 -1
vn -0.2498238 0.9682913 0
vn 0.1354098 -0.5248343 0.8403649
vn -0.1354098 -0.5248343 0.8403649
vn -0.2498238 -0.9682913 0
vn 0.2498238 0.9682913 0
vn 0 0.9970645 -0.07656581
vn 0 0.4099482 -0.9121088
vn 0 0.4099482 -0.9121088
vn 0 0.9735802 -0.2283449
vn 0 0.9735802 -0.2283449
vn 0 0.292081 0.9563935
vn 0.9526434 0.3040896 0
vn -0.9526434 0.3040896 0
vt -0.5 0.5
vt -0.5 1.5
vt 0.5 0.5
vt 0.5 1.5
vt 1.5 0.2323053
vt 1.5 0
vt 0.5 0.2323053
vt 0.5 0
vt -1.5 0
vt -1.5 0.2323053
vt -0.5 0
vt -0.5 0.2323053
vt -0.4242863 -0.91
vt -0.4242863 -0.5
vt 0.4242863 -0.91
vt 0.4242863 -0.5
vt 0.5 -0.5
vt -0.5 -1.5
vt -0.5 -0.5
vt 0.5 -1.5
vt -0.91 0.5337144
vt -1.5 0.5337144
vt -0.5 0.5337144
vt 1.5 0.5337144
vt 0.91 0.5337144
vt 0.5 0.5337144
vt -0.415 -1.32
vt -0.415 -0.91
vt 0.415 -1.32
vt 0.415 -0.91
vt 0.4226768 0.5337144
vt 0.415 0.8
vt 0.3674255 0.753402
vt -0.3674255 0.753402
vt -0.415 0.8
vt -0.4226768 0.5337144
vt -1.444374 0.546761
vt -1.351499 0.753402
vt 1.444374 0.546761
vt 1.351499 0.753402
vt -0.91 0.5849969
vt -0.96 0.7487175
vt -0.91 0.7487175
vt -0.3720257 0.91
vt -0.3720257 0.96
vt 0.3720257 0.91
vt 0.3720257 0.96
vt 0.91 0.7487175
vt 0.96 0.7487175
vt 0.91 0.5849969
vt 0.4242863 0.5337144
vt 0.4242863 0.5849969
vt -0.4242863 0.5337144
vt 0.3720257 0.7487175
vt -0.3720257 0.7487175
vt -0.4242863 0.5849969
vt -0.4242863 0.3
vt 0.4242863 0.3
vt -1.413466 0.5766351
vt -0.9596677 0.5766351
vt -0.9596677 0.7570792
vt -1.32 0.8
vt -1.291492 0.7570792
vt -0.91 0.8
vt 1.413466 0.5766351
vt 1.32 0.8
vt 1.291492 0.7570792
vt 0.91 0.8
vt 0.9596677 0.7570792
vt 0.9596677 0.5766351
vt -0.4287006 0.9596677
vt -0.4287006 1.291492
vt -0.3902525 0.9596677
vt -0.3902525 1.291492
vt -0.4478513 0.5667154
vt -0.4862994 0.5766351
vt -0.3902525 0.7471594
vt -0.4287006 0.7570792
vt -0.4862994 -1.413466
vt -0.4862994 -0.9596677
vt -0.4478513 -1.413466
vt -0.4478513 -0.9596677
vt 0.4478513 0.5667154
vt 0.3902525 0.7471594
vt 0.4862994 0.5766351
vt 0.4287006 0.7570792
vt 0.3902525 0.9596677
vt 0.3902525 1.291492
vt 0.4287006 0.9596677
vt 0.4287006 1.291492
vt 0.4478513 -1.413466
vt 0.4478513 -0.9596677
vt 0.4862994 -1.413466
vt 0.4862994 -0.9596677
vt 0.4146985 0.546761
vt -0.4146985 0.546761
vt -0.4226768 -1.5
vt -0.4146985 -1.444374
vt 0.4226768 -1.5
vt 0.4146985 -1.444374
vt 1.413466 0.5667154
vt 0.9596677 0.5667154
vt 1.291492 0.7471594
vt 0.9596677 0.7471594
vt -1.413466 0.5667154
vt -1.291492 0.7471594
vt -0.9596677 0.5667154
vt -0.9596677 0.7471594
vt 0.5 -0.91
vt -0.5 -0.91
vt -0.91 0.3
vt -0.5 0.3
vt 0.91 0.3
vt 0.5 0.3

usemtl _defaultMat (Instance) (Instance)
usemap _defaultMat (Instance) (Instance)
f 3/3/1 2/2/1 1/1/1
f 2/2/1 3/3/1 4/4/1
f 6/7/2 2/6/2 5/5/2
f 2/6/2 6/7/2 1/8/2
f 3/11/3 7/10/3 4/9/3
f 7/10/3 3/11/3 8/12/3
f 11/15/4 10/14/4 9/13/4
f 10/14/4 11/15/4 12/16/4

usemtl orangeSteel (Instance) (Instance)
usemap orangeSteel (Instance) (Instance)
f 1/19/4 2/18/4 3/17/4
f 4/20/4 3/17/4 2/18/4
f 5/10/3 2/9/3 6/12/3
f 1/11/3 6/12/3 2/9/3
f 6/12/3 13/21/3 5/10/3
f 14/22/3 5/10/3 13/21/3
f 15/23/3 13/21/3 6/12/3
f 4/6/2 7/5/2 3/8/2
f 8/7/2 3/8/2 7/5/2
f 7/5/2 16/24/2 8/7/2
f 17/25/2 8/7/2 16/24/2
f 18/26/2 8/7/2 17/25/2
f 21/29/4 20/28/4 19/27/4
f 20/28/4 21/29/4 22/30/4
f 21/32/6 23/31/5 16/26/5
f 23/31/5 21/32/6 24/33/7
f 24/33/7 21/32/6 25/34/8
f 19/35/9 25/34/8 21/32/6
f 14/23/5 25/34/8 19/35/9
f 25/34/8 14/23/5 26/36/10
f 25/38/11 26/22/11 27/37/11
f 24/40/12 28/39/12 23/24/12
f 31/43/13 30/42/13 29/41/13
f 32/46/1 30/45/1 31/44/1
f 30/45/1 32/46/1 33/47/1
f 34/50/14 33/49/14 32/48/14
f 13/26/15 29/52/16 35/51/15
f 29/52/16 13/26/15 20/32/15
f 35/51/15 29/52/16 36/53/15
f 36/53/15 29/52/16 17/23/15
f 29/52/16 20/32/15 31/54/15
f 31/54/15 20/32/15 32/55/15
f 34/56/17 17/23/15 29/52/16
f 17/23/15 34/56/17 22/35/15
f 22/35/15 34/56/17 32/55/15
f 22/35/15 32/55/15 20/32/15
f 11/57/15 35/51/15 36/53/15
f 35/51/15 11/57/15 9/58/15
f 17/21/20 37/59/19 16/22/18
f 37/59/19 17/21/20 38/60/21
f 38/60/21 17/21/20 39/61/22
f 37/59/19 21/62/21 16/22/18
f 21/62/21 37/59/19 40/63/23
f 21/62/21 40/63/23 22/64/23
f 22/64/23 40/63/23 39/61/22
f 22/64/23 39/61/22 17/21/20
f 19/66/26 41/65/25 14/24/24
f 41/65/25 19/66/26 42/67/27
f 42/67/27 19/66/26 20/68/26
f 42/67/27 20/68/26 43/69/26
f 43/69/26 20/68/26 44/70/28
f 41/65/25 13/25/29 14/24/24
f 13/25/29 41/65/25 44/70/28
f 13/25/29 44/70/28 20/68/26
f 45/73/30 42/72/30 43/71/30
f 42/72/30 45/73/30 46/74/30
f 45/77/31 44/76/31 47/75/31
f 44/76/31 45/77/31 43/78/31
f 48/81/32 44/80/32 41/79/32
f 44/80/32 48/81/32 47/82/32
f 41/85/33 46/84/33 48/83/33
f 46/84/33 41/85/33 42/86/33
f 50/77/34 37/76/34 49/75/34
f 37/76/34 50/77/34 40/78/34
f 39/89/35 50/88/35 51/87/35
f 50/88/35 39/89/35 40/90/35
f 37/93/36 52/92/36 49/91/36
f 52/92/36 37/93/36 38/94/36
f 38/85/31 51/84/31 52/83/31
f 51/84/31 38/85/31 39/86/31
f 4/11/15 2/8/15 7/12/15
f 5/7/15 7/12/15 2/8/15
f 16/23/15 7/12/15 5/7/15
f 14/26/15 16/23/15 5/7/15
f 23/36/37 16/23/4 14/26/4
f 26/31/37 23/36/37 14/26/4

usemtl glass (Instance) (Instance)
usemap glass (Instance) (Instance)
f 24/33/7 27/96/39 28/95/38
f 27/96/39 24/33/7 25/34/8
f 23/99/37 27/98/40 26/97/37
f 27/98/40 23/99/37 28/100/41
f 30/54/42 34/56/17 29/52/16
f 34/56/17 30/54/42 33/55/42
f 46/103/43 47/102/43 48/101/43
f 47/102/43 46/103/43 45/104/43
f 52/107/44 50/106/44 49/105/44
f 50/106/44 52/107/44 51/108/44

usemtl blueSteel (Instance) (Instance)
usemap blueSteel (Instance) (Instance)
f 17/109/4 53/16/4 36/15/4
f 53/16/4 17/109/4 18/17/4
f 35/13/4 15/19/4 13/110/4
f 15/19/4 35/13/4 54/14/4
f 10/112/3 35/21/3 9/111/3
f 35/21/3 10/112/3 54/23/3
f 53/26/2 11/113/2 36/25/2
f 11/113/2 53/26/2 12/114/2
f 13/25/29 5/5/2 14/24/24
f 5/5/2 13/25/29 6/7/2
f 6/7/2 13/25/29 15/26/2
f 8/12/3 16/22/18 7/10/3
f 16/22/18 8/12/3 17/21/20
f 17/21/20 8/12/3 18/23/3
f 7/7/31 2/11/31 4/8/31
f 2/11/31 7/7/31 5/12/31
f 5/12/31 7/7/31 16/26/31
f 5/12/31 16/26/31 14/23/31
f 14/26/4 16/23/4 23/36/37
f 14/26/4 23/36/37 26/31/37
f 8/12/15 12/57/15 18/23/15
f 12/57/15 8/12/15 10/58/15
f 18/23/15 12/57/15 53/53/15
f 8/12/15 6/7/15 10/58/15
f 3/11/15 6/7/15 8/12/15
f 6/7/15 3/11/15 1/8/15
f 10/58/15 6/7/15 15/26/15
f 10/58/15 15/26/15 54/51/15
g trunk_bed_41

v 0.5 8.750996E-17 -0.5
v -0.5 8.750996E-17 -0.5
v 0.5 0.2323053 0.4271432
v 0.5 0.5337144 0.4271432
v -0.4242863 0.5337144 0.3892863
v -0.4242863 0.3 0.3892863
v 0.4242863 0.3 0.3892863
v 0.4242863 0.5337144 0.3892863
v 0.4621432 0.5337144 0.465
v -0.4621432 0.5337144 0.465
v -0.5 0.5337144 0.4271432
v -0.5 0.2323053 0.4271432
v -0.4621432 0.2323053 0.465
v 0.4621432 0.2323053 0.465
v 0.5 -8.3689E-18 0
v 0.5 0.09865264 0.5
v 0.5 0.2323053 0.465
v 0.5 0.1973053 0.5
v -0.5 -8.3689E-18 0
v -0.5 0.09865264 0.5
v -0.5 0.1973053 0.5
v -0.5 0.2323053 0.465
vn -0.7071068 0 0.7071068
vn 0.7071068 0 0.7071068
vn 0 -0.991567 0.1295947
vn 0 -0.9978985 0.06479739
vn 0 0.7071068 0.7071068
vn 0 -0.9810858 0.1935734
vt -0.5 8.750996E-17
vt 0.5 8.750996E-17
vt -0.4271432 0.2323053
vt -0.4271432 0.5337144
vt -0.3892863 0.5337144
vt -0.3892863 0.3
vt 0.3892863 0.3
vt 0.3892863 0.5337144
vt -0.4621432 0.465
vt 0.4621432 0.465
vt -0.4242863 0.3892863
vt 0.4242863 0.3892863
vt 0.5 0.4271432
vt -0.5 0.4271432
vt -0.4621432 0.2323053
vt -0.4621432 0.5337144
vt 0.4621432 0.5337144
vt 0.4621432 0.2323053
vt 0.4271432 0.2323053
vt 0.4271432 0.5337144
vt 0 -8.3689E-18
vt -0.5 0.09865264
vt -0.465 0.2323053
vt -0.5 0.1973053
vt 0.5 0.09865264
vt 0.5 0.1973053
vt 0.465 0.2323053
vt 0.5 0.465
vt -0.5 0.465

usemtl blueSteel (Instance) (Instance)
usemap blueSteel (Instance) (Instance)
f 18/26/31 12/58/31 8/7/31
f 12/58/31 18/26/31 53/51/31
f 10/57/31 8/7/31 12/58/31
f 6/12/31 8/7/31 10/57/31
f 55/115/31 8/7/31 6/12/31
f 8/7/31 55/115/31 56/116/31
f 6/12/31 10/57/31 15/23/31
f 15/23/31 10/57/31 54/53/31
f 15/26/2 57/117/2 6/7/2
f 57/117/2 15/26/2 58/118/2
f 59/119/2 12/114/2 53/26/2
f 12/114/2 59/119/2 60/120/2
f 61/121/3 54/23/3 10/112/3
f 54/23/3 61/121/3 62/122/3
f 62/125/4 64/124/4 63/123/4
f 64/124/4 62/125/4 59/126/4
f 64/124/4 59/126/4 53/16/4
f 64/124/4 53/16/4 18/17/4
f 64/124/4 18/17/4 65/127/4
f 63/123/4 54/14/4 62/125/4
f 63/123/4 15/19/4 54/14/4
f 15/19/4 63/123/4 58/128/4
f 67/129/45 65/23/45 66/12/45
f 65/23/45 67/129/45 64/130/45
f 63/131/46 57/7/46 58/26/46
f 57/7/46 63/131/46 68/132/46
f 63/131/15 67/129/15 68/132/15
f 67/129/15 63/131/15 64/130/15
f 66/133/3 18/23/3 8/12/3
f 18/23/3 66/133/3 65/134/3
f 59/51/31 61/57/31 60/58/31
f 61/57/31 59/51/31 62/53/31

usemtl _defaultMat (Instance) (Instance)
usemap _defaultMat (Instance) (Instance)
f 10/14/4 60/126/4 61/125/4
f 60/126/4 10/14/4 12/16/4
f 57/117/2 55/116/2 6/7/2
f 55/116/2 57/117/2 69/135/2
f 69/135/2 57/117/2 70/136/2
f 70/136/2 57/117/2 71/137/2
f 70/136/2 71/137/2 72/138/2
f 73/8/48 55/1/1 69/11/47
f 55/1/1 73/8/48 56/3/1
f 72/140/15 74/136/15 70/139/15
f 74/136/15 72/140/15 75/138/15
f 73/135/3 8/12/3 56/115/3
f 8/12/3 73/135/3 66/133/3
f 66/133/3 73/135/3 74/139/3
f 66/133/3 74/139/3 76/141/3
f 76/141/3 74/139/3 75/140/3
f 68/132/49 72/140/49 71/7/49
f 72/140/49 68/132/49 75/138/49
f 75/138/49 68/132/49 67/129/49
f 75/138/49 67/129/49 76/12/49
f 76/142/4 67/124/4 66/127/4
f 68/123/4 71/143/4 57/128/4
f 74/17/50 69/11/47 70/19/50
f 69/11/47 74/17/50 73/8/48
g hood_square_42

v 0.5 0.2323053 -2.37
v 0.5 0.06246446 -2.37
v 0.5 0.2323053 -2.33
v -0.5 0.2323053 -2.37
v -0.5 0.2323053 -2.33
v -0.5 0.06246446 -2.37
v 0.5 0.5438105 -1.5
v -0.5 0.5438105 -1.5
v -0.5 0.4316687 -2.33
v -0.5 0.5438105 -1.633155
v 0.5 0.4316687 -2.33
v 0.5 0.5438105 -1.633155
v 0.3 0.5438105 -1.633155
v -0.3 0.5438105 -1.633155
v -0.3 0.4316687 -2.33
v -0.4 0.271987 -2.33
v -0.4155291 0.2740314 -2.33
v -0.43 0.2800255 -2.33
v -0.4424264 0.2895606 -2.33
v -0.4519615 0.301987 -2.33
v -0.4579555 0.3164578 -2.33
v -0.46 0.331987 -2.33
v -0.4579555 0.3475161 -2.33
v -0.4519615 0.361987 -2.33
v -0.4424264 0.3744134 -2.33
v -0.43 0.3839485 -2.33
v -0.4155291 0.3899425 -2.33
v -0.4 0.391987 -2.33
v -0.3844709 0.3899425 -2.33
v -0.37 0.3839485 -2.33
v -0.3575736 0.3744134 -2.33
v -0.3480385 0.361987 -2.33
v -0.3420444 0.3475161 -2.33
v -0.3 0.331987 -2.33
v -0.34 0.331987 -2.33
v -0.3420444 0.3164578 -2.33
v 0.3420444 0.3164578 -2.33
v 0.3480385 0.301987 -2.33
v -0.3480385 0.301987 -2.33
v 0.3575736 0.2895606 -2.33
v -0.3575736 0.2895606 -2.33
v 0.37 0.2800255 -2.33
v -0.37 0.2800255 -2.33
v 0.3844709 0.2740314 -2.33
v -0.3844709 0.2740314 -2.33
v 0.4 0.271987 -2.33
v 0.34 0.331987 -2.33
v 0.4155291 0.2740314 -2.33
v 0.43 0.2800255 -2.33
v 0.4424264 0.2895606 -2.33
v 0.4519615 0.301987 -2.33
v 0.4579555 0.3164578 -2.33
v 0.46 0.331987 -2.33
v 0.4579555 0.3475161 -2.33
v 0.4519615 0.361987 -2.33
v 0.4424264 0.3744134 -2.33
v 0.43 0.3839485 -2.33
v 0.4155291 0.3899425 -2.33
v 0.4 0.391987 -2.33
v 0.3 0.4316687 -2.33
v 0.3 0.331987 -2.33
v 0.3420444 0.3475161 -2.33
v 0.3480385 0.361987 -2.33
v 0.3575736 0.3744134 -2.33
v 0.37 0.3839485 -2.33
v 0.3844709 0.3899425 -2.33
vn 0 -0.9974324 -0.07161389
vn 0 0.9943423 -0.1062229
vn 0 0.9922167 -0.124523
vn 0 0.9924703 -0.1224854
vn 0 0.9968193 -0.07969544
vn 0 0.9872973 -0.1588839
vn 0 0.9891343 -0.1470151
vn 0 0.9891343 -0.1470152
vt 2.37 0.2323053
vt 2.37 0.06246446
vt 2.33 0.2323053
vt -0.5 -2.37
vt -0.5 -2.33
vt 0.5 -2.37
vt 0.5 -2.33
vt 0.5 0.06246446
vt -0.5 0.06246446
vt -2.37 0.06246446
vt -2.37 0.2323053
vt -2.33 0.2323053
vt -0.5 2.37
vt 0.5 2.37
vt 0.5 0.5438105
vt -0.5 0.5438105
vt -2.33 0.4316687
vt -1.633155 0.5438105
vt -1.5 0.5438105
vt 2.33 0.4316687
vt 1.633155 0.5438105
vt 1.5 0.5438105
vt -0.5 -1.633155
vt -0.3 -1.633155
vt 0.3 -1.633155
vt 0.5 -1.633155
vt 0.3 -2.33
vt 0.4 0.271987
vt 0.4155291 0.2740314
vt 0.43 0.2800255
vt 0.4424264 0.2895606
vt 0.4519615 0.301987
vt 0.4579555 0.3164578
vt 0.5 0.4316687
vt 0.46 0.331987
vt 0.4579555 0.3475161
vt 0.4519615 0.361987
vt 0.4424264 0.3744134
vt 0.43 0.3839485
vt 0.4155291 0.3899425
vt 0.4 0.391987
vt 0.3 0.4316687
vt 0.3844709 0.3899425
vt 0.37 0.3839485
vt 0.3575736 0.3744134
vt 0.3480385 0.361987
vt 0.3420444 0.3475161
vt 0.3 0.331987
vt 0.34 0.331987
vt 0.3420444 0.3164578
vt -0.3420444 0.3164578
vt -0.3480385 0.301987
vt 0.3480385 0.301987
vt -0.3575736 0.2895606
vt 0.3575736 0.2895606
vt -0.37 0.2800255
vt 0.37 0.2800255
vt -0.3844709 0.2740314
vt 0.3844709 0.2740314
vt -0.4 0.271987
vt -0.34 0.331987
vt -0.4155291 0.2740314
vt -0.43 0.2800255
vt -0.4424264 0.2895606
vt -0.4519615 0.301987
vt -0.4579555 0.3164578
vt -0.5 0.4316687
vt -0.46 0.331987
vt -0.4579555 0.3475161
vt -0.4519615 0.361987
vt -0.4424264 0.3744134
vt -0.43 0.3839485
vt -0.4155291 0.3899425
vt -0.4 0.391987
vt -0.3 0.4316687
vt -0.3 0.331987
vt -0.3420444 0.3475161
vt -0.3480385 0.361987
vt -0.3575736 0.3744134
vt -0.37 0.3839485
vt -0.3844709 0.3899425
vt -0.3 -2.33
vt -2.33 0.331987
vt 2.33 0.331987

usemtl _defaultMat (Instance) (Instance)
usemap _defaultMat (Instance) (Instance)
f 79/146/2 78/145/2 77/144/2
f 78/145/2 79/146/2 2/6/2
f 2/6/2 79/146/2 5/5/2
f 80/149/4 79/148/4 77/147/4
f 79/148/4 80/149/4 81/150/4
f 80/7/31 78/152/31 82/151/31
f 78/152/31 80/7/31 77/12/31
f 4/9/3 80/154/3 82/153/3
f 80/154/3 4/9/3 81/155/3
f 81/155/3 4/9/3 7/10/3
f 4/4/51 78/156/51 2/2/51
f 78/156/51 4/4/51 82/157/51

usemtl blueSteel (Instance) (Instance)
usemap blueSteel (Instance) (Instance)
f 5/7/15 4/11/15 2/8/15
f 4/11/15 5/7/15 7/12/15
f 7/12/15 5/7/15 83/158/15
f 7/12/15 83/158/15 84/159/15
f 7/10/3 85/160/3 81/155/3
f 85/160/3 7/10/3 86/161/3
f 86/161/3 7/10/3 84/162/3
f 88/164/2 79/146/2 87/163/2
f 79/146/2 88/164/2 5/5/2
f 5/5/2 88/164/2 83/165/2
f 89/167/53 83/18/4 88/166/52
f 83/18/4 89/167/53 84/20/4
f 84/20/4 89/167/53 90/168/54
f 84/20/4 90/168/54 86/169/55
f 85/150/56 90/168/54 91/170/56
f 90/168/54 85/150/56 86/169/55
f 81/7/31 92/171/31 79/12/31
f 92/171/31 81/7/31 93/172/31
f 93/172/31 81/7/31 94/173/31
f 94/173/31 81/7/31 95/174/31
f 95/174/31 81/7/31 96/175/31
f 96/175/31 81/7/31 97/176/31
f 97/176/31 81/7/31 85/177/31
f 97/176/31 85/177/31 98/178/31
f 98/178/31 85/177/31 99/179/31
f 99/179/31 85/177/31 100/180/31
f 100/180/31 85/177/31 101/181/31
f 101/181/31 85/177/31 102/182/31
f 102/182/31 85/177/31 103/183/31
f 103/183/31 85/177/31 104/184/31
f 91/185/31 104/184/31 85/177/31
f 91/185/31 105/186/31 104/184/31
f 91/185/31 106/187/31 105/186/31
f 91/185/31 107/188/31 106/187/31
f 91/185/31 108/189/31 107/188/31
f 91/185/31 109/190/31 108/189/31
f 110/191/31 109/190/31 91/185/31
f 109/190/31 110/191/31 111/192/31
f 113/194/31 112/193/31 111/192/31
f 114/195/31 112/193/31 113/194/31
f 114/195/31 115/196/31 112/193/31
f 116/197/31 115/196/31 114/195/31
f 116/197/31 117/198/31 115/196/31
f 118/199/31 117/198/31 116/197/31
f 118/199/31 119/200/31 117/198/31
f 120/201/31 119/200/31 118/199/31
f 120/201/31 121/202/31 119/200/31
f 122/203/31 121/202/31 120/201/31
f 121/202/31 122/203/31 92/171/31
f 113/194/31 111/192/31 123/204/31
f 122/203/31 79/12/31 92/171/31
f 124/205/31 79/12/31 122/203/31
f 125/206/31 79/12/31 124/205/31
f 126/207/31 79/12/31 125/206/31
f 127/208/31 79/12/31 126/207/31
f 128/209/31 79/12/31 127/208/31
f 79/12/31 128/209/31 87/210/31
f 87/210/31 128/209/31 129/211/31
f 87/210/31 129/211/31 130/212/31
f 87/210/31 130/212/31 131/213/31
f 87/210/31 131/213/31 132/214/31
f 87/210/31 132/214/31 133/215/31
f 87/210/31 133/215/31 134/216/31
f 87/210/31 134/216/31 135/217/31
f 87/210/31 135/217/31 136/218/31
f 123/204/31 137/219/31 136/218/31
f 123/204/31 136/218/31 138/220/31
f 138/220/31 136/218/31 139/221/31
f 139/221/31 136/218/31 140/222/31
f 140/222/31 136/218/31 141/223/31
f 141/223/31 136/218/31 142/224/31
f 142/224/31 136/218/31 135/217/31
f 123/192/4 111/204/4 110/219/57
f 123/192/4 110/219/57 137/191/58
f 136/225/56 88/166/52 87/148/56
f 88/166/52 136/225/56 89/167/53
f 89/161/3 136/160/3 137/226/3
f 90/164/2 110/227/2 91/163/2

usemtl orangeSteel (Instance) (Instance)
usemap orangeSteel (Instance) (Instance)
f 110/170/57 89/167/53 137/225/58
f 89/167/53 110/170/57 90/168/54

usemtl light (Instance) (Instance)
usemap light (Instance) (Instance)
f 93/172/31 121/202/31 92/171/31
f 121/202/31 93/172/31 94/173/31
f 121/202/31 94/173/31 119/200/31
f 119/200/31 94/173/31 95/174/31
f 119/200/31 95/174/31 117/198/31
f 117/198/31 95/174/31 115/196/31
f 115/196/31 95/174/31 96/175/31
f 115/196/31 96/175/31 112/193/31
f 112/193/31 96/175/31 97/176/31
f 112/193/31 97/176/31 111/192/31
f 111/192/31 97/176/31 98/178/31
f 111/192/31 98/178/31 99/179/31
f 111/192/31 99/179/31 109/190/31
f 109/190/31 99/179/31 108/189/31
f 108/189/31 99/179/31 100/180/31
f 108/189/31 100/180/31 107/188/31
f 107/188/31 100/180/31 101/181/31
f 107/188/31 101/181/31 102/182/31
f 107/188/31 102/182/31 106/187/31
f 106/187/31 102/182/31 103/183/31
f 106/187/31 103/183/31 105/186/31
f 105/186/31 103/183/31 104/184/31
f 120/201/31 124/205/31 122/203/31
f 124/205/31 120/201/31 118/199/31
f 124/205/31 118/199/31 125/206/31
f 125/206/31 118/199/31 116/197/31
f 125/206/31 116/197/31 126/207/31
f 126/207/31 116/197/31 127/208/31
f 127/208/31 116/197/31 114/195/31
f 127/208/31 114/195/31 128/209/31
f 128/209/31 114/195/31 113/194/31
f 128/209/31 113/194/31 129/211/31
f 129/211/31 113/194/31 123/204/31
f 129/211/31 123/204/31 138/220/31
f 129/211/31 138/220/31 130/212/31
f 130/212/31 138/220/31 131/213/31
f 131/213/31 138/220/31 139/221/31
f 131/213/31 139/221/31 132/214/31
f 132/214/31 139/221/31 140/222/31
f 132/214/31 140/222/31 141/223/31
f 132/214/31 141/223/31 133/215/31
f 133/215/31 141/223/31 142/224/31
f 133/215/31 142/224/31 134/216/31
f 134/216/31 142/224/31 135/217/31
