# Made using Asset Forge (www.assetforge.io) version 1.3 

mtllib car-2.mtl 

g windshield_square_23

v 0.5 0 -0.5
v 0.5 0 -1.5
v -0.5 0 -0.5
v -0.5 0 -1.5
v 0.5 0.2323053 -1.5
v 0.5 0.2323053 -0.5
v -0.5 0.2323053 -1.5
v -0.5 0.2323053 -0.5
v 0.5 0.5438105 -0.5
v 0.5 0.5438105 -1.5
v -0.5 0.5438105 -1.5
v -0.5 0.5438105 -0.5
v 0.415 0.8 -1.32
v 0.415 0.8 -0.5
v -0.415 0.8 -1.32
v -0.415 0.8 -0.5
v -0.4861 0.5857052 -1.412206
v -0.4861 0.5857052 -0.9003909
v -0.4289 0.7581054 -0.9003909
v -0.4289 0.7581054 -1.291077
v -0.4226768 0.5438105 -1.5
v -0.3674255 0.7551688 -1.351499
v 0.3674255 0.7551688 -1.351499
v 0.4226768 0.5438105 -1.5
v 0.4146985 0.5563626 -1.444374
v -0.4146985 0.5563626 -1.444374
v 0.4861 0.5857052 -1.412206
v 0.4289 0.7581054 -1.291077
v 0.4289 0.7581054 -0.9003909
v 0.4861 0.5857052 -0.9003909
v 0.4380398 0.5737756 -0.9003909
v 0.3808399 0.7461758 -0.9003909
v 0.4380398 0.5737756 -1.412206
v 0.3808399 0.7461758 -1.291077
v -0.4380398 0.5737756 -1.412206
v -0.4380398 0.5737756 -0.9003909
v -0.3808399 0.7461758 -0.9003909
v -0.3808399 0.7461758 -1.291077
vn 0 -1 0
vn 1 0 0
vn -1 0 0
vn 0 1 0
vn 0 0 1
vn -0.9871988 0.1594944 0
vn -0.949123 0.3149054 0
vn -0.967204 0.2540005 0
vn -0.949123 0.3149054 0
vn 0 0.574892 -0.8182293
vn 0 0.5748921 -0.8182293
vn 0 0.5009997 -0.8654473
vn 0 0.5459071 -0.8378457
vn -0.9775238 -0.1866141 -0.09809348
vn 0.9775238 -0.1866141 -0.09809347
vn 0.9771934 0.2123516 0
vn 0.949123 0.3149054 0
vn 0.949123 0.3149054 0
vn 0.9815329 0.1912934 0
vn 0 0 -1
vn -0.2409105 0.9705474 0
vn 0.1339348 -0.5395779 0.8312143
vn 0.133935 -0.5395778 0.8312144
vn 0.1339353 -0.5395776 0.8312144
vn 0.2409115 -0.970547 0
vn 0.2409105 0.9705474 0
vn -0.2409115 -0.970547 0
vn -0.1339348 -0.5395779 0.8312143
vn -0.133935 -0.5395778 0.8312144
vn -0.1339353 -0.5395776 0.8312144
vn 0 0.9972749 -0.07377484
vn 0 0.4232551 -0.9060106
vn 0 0.9754739 -0.2201149
vn 0.9491231 0.3149054 0
vn -0.9491231 0.3149054 0
vt -0.5 0.5
vt -0.5 1.5
vt 0.5 0.5
vt 0.5 1.5
vt 1.5 0.2323053
vt 1.5 0
vt 0.5 0.2323053
vt 0.5 0
vt -1.5 0
vt -1.5 0.2323053
vt -0.5 0
vt -0.5 0.2323053
vt 0.5 -0.5
vt -0.5 -1.5
vt -0.5 -0.5
vt 0.5 -1.5
vt -0.5 0.5438105
vt -1.5 0.5438105
vt 1.5 0.5438105
vt 0.5 0.5438105
vt -0.415 -1.32
vt -0.415 -0.5
vt 0.415 -1.32
vt 0.415 -0.5
vt 0.415 0.8
vt -0.415 0.8
vt -1.412206 0.5857052
vt -0.9003909 0.5857052
vt -0.9003909 0.7581054
vt -1.32 0.8
vt -1.291077 0.7581054
vt -0.5 0.8
vt 0.4226768 0.5438105
vt 0.3674255 0.7551688
vt -0.3674255 0.7551688
vt -0.4226768 0.5438105
vt -1.444374 0.5563626
vt -1.351499 0.7551688
vt 1.444374 0.5563626
vt 1.351499 0.7551688
vt 1.412206 0.5857052
vt 1.32 0.8
vt 1.291077 0.7581054
vt 0.5 0.8
vt 0.9003909 0.7581054
vt 0.9003909 0.5857052
vt -0.4380398 0.5737756
vt -0.4861 0.5857052
vt -0.3808399 0.7461758
vt -0.4289 0.7581054
vt -0.4861 -1.412206
vt -0.4861 -0.9003909
vt -0.4380398 -1.412206
vt -0.4380398 -0.9003909
vt 0.4380398 0.5737756
vt 0.3808399 0.7461758
vt 0.4861 0.5857052
vt 0.4289 0.7581054
vt -0.4289 0.9003909
vt -0.4289 1.291077
vt -0.3808399 0.9003909
vt -0.3808399 1.291077
vt 0.4380398 -1.412206
vt 0.4380398 -0.9003909
vt 0.4861 -1.412206
vt 0.4861 -0.9003909
vt 0.3808399 0.9003909
vt 0.3808399 1.291077
vt 0.4289 0.9003909
vt 0.4289 1.291077
vt 0.4146985 0.5563626
vt -0.4146985 0.5563626
vt -0.4226768 -1.5
vt -0.4146985 -1.444374
vt 0.4226768 -1.5
vt 0.4146985 -1.444374
vt 1.412206 0.5737756
vt 0.9003909 0.5737756
vt 1.291077 0.7461758
vt 0.9003909 0.7461758
vt -1.412206 0.5737756
vt -1.291077 0.7461758
vt -0.9003909 0.5737756
vt -0.9003909 0.7461758

usemtl _defaultMat (Instance) (Instance)
usemap _defaultMat (Instance) (Instance)
f 3/3/1 2/2/1 1/1/1
f 2/2/1 3/3/1 4/4/1
f 6/7/2 2/6/2 5/5/2
f 2/6/2 6/7/2 1/8/2
f 3/11/3 7/10/3 4/9/3
f 7/10/3 3/11/3 8/12/3

usemtl orangeSteel (Instance)
usemap orangeSteel (Instance)
f 1/15/4 2/14/4 3/13/4
f 4/16/4 3/13/4 2/14/4
f 5/10/3 2/9/3 6/12/3
f 1/11/3 6/12/3 2/9/3
f 6/12/3 9/17/3 5/10/3
f 10/18/3 5/10/3 9/17/3
f 4/6/2 7/5/2 3/8/2
f 8/7/2 3/8/2 7/5/2
f 7/5/2 11/19/2 8/7/2
f 12/20/2 8/7/2 11/19/2
f 15/23/4 14/22/4 13/21/4
f 14/22/4 15/23/4 16/24/4
f 14/25/5 12/17/5 9/20/5
f 12/17/5 14/25/5 16/26/5
f 12/17/8 17/27/7 11/18/6
f 17/27/7 12/17/8 18/28/7
f 18/28/7 12/17/8 19/29/7
f 17/27/7 15/30/7 11/18/6
f 15/30/7 17/27/7 20/31/9
f 15/30/7 20/31/9 16/32/9
f 16/32/9 20/31/9 19/29/7
f 16/32/9 19/29/7 12/17/8
f 15/25/11 21/33/10 11/20/10
f 21/33/10 15/25/11 22/34/12
f 22/34/12 15/25/11 23/35/13
f 13/26/11 23/35/13 15/25/11
f 10/17/10 23/35/13 13/26/11
f 23/35/13 10/17/10 24/36/10
f 23/38/14 24/18/14 25/37/14
f 22/40/15 26/39/15 21/19/15
f 13/42/17 27/41/17 10/19/16
f 27/41/17 13/42/17 28/43/18
f 28/43/18 13/42/17 14/44/18
f 28/43/18 14/44/18 29/45/17
f 29/45/17 14/44/18 30/46/17
f 27/41/17 9/20/19 10/19/16
f 9/20/19 27/41/17 30/46/17
f 9/20/19 30/46/17 14/44/18
f 32/49/20 30/48/20 31/47/20
f 30/48/20 32/49/20 29/50/20
f 33/53/21 30/52/21 27/51/21
f 30/52/21 33/53/21 31/54/21
f 27/57/23 34/56/23 33/55/22
f 34/56/23 27/57/23 28/58/24
f 32/61/25 28/60/25 29/59/25
f 28/60/25 32/61/25 34/62/25
f 17/65/26 36/64/26 35/63/26
f 36/64/26 17/65/26 18/66/26
f 19/69/27 38/68/27 37/67/27
f 38/68/27 19/69/27 20/70/27
f 38/49/29 17/48/29 35/47/28
f 17/48/29 38/49/29 20/50/30
f 18/57/20 37/56/20 36/55/20
f 37/56/20 18/57/20 19/58/20
f 4/11/5 2/8/5 7/12/5
f 5/7/5 7/12/5 2/8/5
f 11/17/5 7/12/5 5/7/5
f 10/20/5 11/17/5 5/7/5
f 21/36/31 11/17/4 10/20/4
f 24/33/31 21/36/31 10/20/4

usemtl glass (Instance) (Instance)
usemap glass (Instance) (Instance)
f 22/34/12 25/72/32 26/71/32
f 25/72/32 22/34/12 23/35/13
f 21/75/31 25/74/33 24/73/31
f 25/74/33 21/75/31 26/76/33
f 34/79/34 31/78/34 33/77/34
f 31/78/34 34/79/34 32/80/34
f 36/83/35 38/82/35 35/81/35
f 38/82/35 36/83/35 37/84/35

usemtl blueSteel (Instance) (Instance)
usemap blueSteel (Instance) (Instance)
f 8/12/3 11/18/6 7/10/3
f 11/18/6 8/12/3 12/17/8
f 7/7/20 2/11/20 4/8/20
f 2/11/20 7/7/20 5/12/20
f 5/12/20 7/7/20 11/20/20
f 5/12/20 11/20/20 10/17/20
f 10/20/4 11/17/4 21/36/31
f 10/20/4 21/36/31 24/33/31
f 6/7/5 3/11/5 1/8/5
f 3/11/5 6/7/5 8/12/5
f 8/12/5 6/7/5 9/20/5
f 8/12/5 9/20/5 12/17/5
f 9/20/19 5/5/2 10/19/16
f 5/5/2 9/20/19 6/7/2
g trunk_defaultHigh_25

v 0.5 6.76792E-17 0
v -0.5 6.76792E-17 0
v -0.5 0.1161526 0.5
v 0.5 0.1161526 0.5
v -0.5 0.2323053 0.43
v -0.5 0.2323053 0.5
v 0.5 0.2323053 0.43
v 0.5 0.2323053 0.5
v 0.5 0.5438105 0.04
v -0.5 0.5438105 0.04
v 0.5 0.3867463 0.43
v -0.5 0.3867463 0.43
v 0.4232978 0.5924505 0.007723925
v 0.415 0.8 -0.13
v 0.3705738 0.7513601 -0.09772392
v -0.3705738 0.7513601 -0.09772392
v -0.4232978 0.5924505 0.007723925
v -0.415 0.8 -0.13
v 0.4232978 0.590334 -0.02560562
v -0.4232978 0.590334 -0.02560562
vn 0 -0.988422 0.1517303
vn 0 -0.9971181 0.07586516
vn 0 -0.9740624 0.2262798
vn 0 0.9971181 -0.07586516
vn 0 0.988422 -0.1517303
vn 0 0.9740624 -0.2262798
vn 0 0.5529134 0.8332388
vn 0 0.4824659 0.8759147
vn 0 0.5181891 0.8552661
vn 0 0.5529134 0.8332387
vn -0.9918349 0.127529 0
vn 0.9771934 0.2123515 0
vn 0.9968359 0.07948829 0
vn 0 0.9979898 -0.06337567
vn -0.9526972 -0.3033103 0.01926121
vn 0.9526972 -0.3033103 0.01926118
vn 0 -0.5529134 -0.8332388
vn 0 -0.4824659 -0.8759147
vn 0 -0.5181891 -0.8552661
vn 0 -0.5529134 -0.8332387
vn -0.9968359 -0.07948829 0
vn -0.9771934 -0.2123515 0
vn 0.9918349 -0.127529 0
vn 0.9871988 -0.1594944 0
vn 0.949123 -0.3149054 0
vn -0.949123 -0.3149054 0
vn 0 0.9276013 0.3735717
vn 0 -0.4087453 -0.9126484
vn 0 -0.9979898 0.06337567
vn 0.9526972 0.3033102 -0.01926121
vn -0.9526972 0.3033102 -0.01926121
vn 0 0.4087453 0.9126484
vt 0 6.76792E-17
vt 0.43 0.2323053
vt 0.5 0.1161526
vt -0.43 0.2323053
vt -0.5 0.1161526
vt -0.5 0.43
vt 0.5 0.43
vt -0.5 0.04
vt 0.5 0.04
vt -0.5 0.3867463
vt 0.5 0.3867463
vt 0.4232978 0.5924505
vt 0.3705738 0.7513601
vt -0.3705738 0.7513601
vt -0.4232978 0.5924505
vt 0.04 0.5438105
vt -0.13 0.8
vt -0.415 -0.13
vt 0.415 -0.13
vt 0.13 0.8
vt -0.04 0.5438105
vt -0.4232978 -0.02560562
vt -0.4232978 0.007723925
vt 0.4232978 -0.02560562
vt 0.4232978 0.007723925
vt -0.02560562 0.590334
vt -0.09772392 0.7513601
vt 0.007723925 0.5924505
vt 0.09772392 0.7513601
vt 0.02560562 0.590334
vt -0.007723925 0.5924505
vt -0.43 0.3867463
vt 0.43 0.3867463
vt 0.415 0.5
vt -0.415 0.13
vt -0.415 0.5
vt 0.415 0.13
vt 0.4232978 0.590334
vt -0.4232978 0.590334
vt 0.4232978 0.02560562
vt -0.4232978 -0.007723925
vt -0.4232978 0.02560562
vt 0.4232978 -0.007723925

usemtl _defaultMat (Instance) (Instance)
usemap _defaultMat (Instance) (Instance)
f 40/8/37 1/1/1 39/11/36
f 1/1/1 40/8/37 3/3/1
f 39/11/36 41/13/38 40/8/37
f 41/13/38 39/11/36 42/15/38
f 40/85/3 8/12/3 3/11/3
f 8/12/3 40/85/3 43/86/3
f 43/86/3 40/85/3 41/87/3
f 43/86/3 41/87/3 44/7/3
f 45/88/2 1/8/2 6/7/2
f 1/8/2 45/88/2 39/85/2
f 39/85/2 45/88/2 42/89/2
f 42/89/2 45/88/2 46/12/2
f 46/7/5 41/89/5 42/87/5
f 41/89/5 46/7/5 44/12/5
f 43/91/4 46/1/4 45/90/4
f 46/1/4 43/91/4 44/3/4
f 12/13/4 47/92/4 9/15/4
f 47/92/4 12/13/4 48/93/4

usemtl orangeSteel (Instance) (Instance)
usemap orangeSteel (Instance) (Instance)
f 39/11/40 1/15/4 40/8/39
f 3/13/4 40/8/39 1/15/4
f 40/8/39 41/3/41 39/11/40
f 42/1/41 39/11/40 41/3/41
f 45/12/20 43/7/20 49/94/20
f 50/95/20 49/94/20 43/7/20
f 3/8/2 8/7/2 40/85/2
f 43/88/2 40/85/2 8/7/2
f 41/89/2 40/85/2 43/88/2
f 44/12/2 41/89/2 43/88/2
f 6/12/3 1/11/3 45/86/3
f 39/85/3 45/86/3 1/11/3
f 42/87/3 45/86/3 39/85/3
f 46/7/3 45/86/3 42/87/3
f 16/25/20 9/17/20 12/20/20
f 9/17/20 16/25/20 14/26/20
f 47/20/42 51/96/42 48/17/42
f 51/96/42 47/20/42 52/25/42
f 51/96/42 52/25/42 53/97/43
f 53/97/43 52/25/42 54/98/44
f 55/99/45 48/17/42 51/96/42
f 48/17/42 55/99/45 56/26/42
f 56/26/42 55/99/45 54/98/44
f 56/26/42 54/98/44 52/25/42
f 48/100/46 16/32/9 12/17/6
f 16/32/9 48/100/46 56/101/9
f 16/24/4 52/102/4 14/22/4
f 52/102/4 16/24/4 56/103/4
f 52/104/18 9/20/47 14/44/18
f 9/20/47 52/104/18 47/105/48
f 58/108/49 51/107/49 57/106/49
f 51/107/49 58/108/49 55/109/49
f 51/112/50 53/111/50 57/110/50
f 55/115/51 58/114/51 54/113/51

usemtl blueSteel (Instance) (Instance)
usemap blueSteel (Instance) (Instance)
f 49/95/5 43/12/5 45/7/5
f 43/12/5 49/95/5 50/94/5
f 8/7/20 1/11/20 3/8/20
f 1/11/20 8/7/20 6/12/20
f 6/12/20 8/7/20 9/17/20
f 9/17/20 8/7/20 12/20/20
f 3/11/5 1/8/5 8/12/5
f 6/7/5 8/12/5 1/8/5
f 9/20/5 8/12/5 6/7/5
f 12/17/5 8/12/5 9/20/5
f 12/17/5 9/20/5 16/26/5
f 14/25/5 16/26/5 9/20/5
f 48/20/52 51/99/52 47/17/52
f 52/26/52 47/17/52 51/99/52
f 53/98/53 52/26/52 51/99/52
f 54/97/54 52/26/52 53/98/53
f 51/99/52 48/20/52 55/96/55
f 56/25/52 55/96/55 48/20/52
f 54/97/54 55/96/55 56/25/52
f 52/26/52 54/97/54 56/25/52
f 47/105/48 6/7/2 9/20/47
f 6/7/2 47/105/48 45/88/2
f 45/88/2 47/105/48 49/116/2
f 9/17/57 6/12/3 47/100/56
f 45/86/3 47/100/56 6/12/3
f 49/117/3 47/100/56 45/86/3
f 8/12/3 48/100/46 12/17/6
f 48/100/46 8/12/3 43/86/3
f 48/100/46 43/86/3 50/117/3
f 12/20/59 48/105/58 8/7/2
f 43/88/2 8/7/2 48/105/58
f 50/116/2 43/88/2 48/105/58
f 12/20/59 16/44/60 48/105/58
f 56/104/60 48/105/58 16/44/60
f 14/120/1 52/119/1 16/118/1
f 56/121/1 16/118/1 52/119/1
f 14/32/61 9/17/57 52/101/61
f 47/100/56 52/101/61 9/17/57
f 48/93/62 49/90/62 47/92/62
f 49/90/62 48/93/62 50/91/62
f 57/123/63 58/122/63 53/98/53
f 54/97/54 53/98/53 58/122/63
f 57/126/64 51/125/64 58/124/64
f 55/127/64 58/124/64 51/125/64
f 57/114/65 53/113/65 51/115/65
f 54/111/66 58/110/66 55/112/66

usemtl glass (Instance) (Instance)
usemap glass (Instance) (Instance)
f 53/97/43 58/123/67 57/122/67
f 58/123/67 53/97/43 54/98/44
g hood_luxurious%_26

v 0.25 0.2323053 -2.323125
v 0.5 0.2323053 -2.323125
v 0.25 0.3684343 -2.323125
v 0.5 0.3684343 -2.323125
v -0.5 0.2323053 -2.323125
v -0.25 0.2323053 -2.323125
v -0.5 0.3684343 -2.323125
v -0.25 0.3684343 -2.323125
v 0.5 0.2323053 -2.37
v -0.5 0.2323053 -2.37
v 0.25 0.2323053 -2.294064
v -0.25 0.2323053 -2.294064
v -0.5 -2.374353E-21 -2.37
v 0.5 -2.374353E-21 -2.37
v 0.5 -2.374353E-21 -1.5
v -0.5 2.374353E-21 -1.5
v 0.5 0.4738106 -1.5
v -0.5 0.4738106 -1.5
v 0.25 0.4738106 -1.5
v -0.25 0.4738106 -1.5
v -0.25 0.3721546 -2.294064
v 0.25 0.3721546 -2.294064
v -0.25 0.4159289 -2.294064
v 0.25 0.4159289 -2.294064
vn 0 0.9989665 -0.04545177
vn 0 0.9963973 -0.08480836
vn 0 0.9991006 -0.04240419
vn 0 0.9966505 -0.08177832
vn 0 0.9919047 -0.1269835
vn 0 0.9919047 -0.1269835
vn 0 0.9919047 -0.1269835
vn 0 0.9973539 -0.07270008
vt -0.25 0.2323053
vt -0.25 0.3684343
vt -0.5 0.3684343
vt 0.25 0.2323053
vt 0.5 0.3684343
vt 0.25 0.3684343
vt -0.5 -2.37
vt -0.5 -2.323125
vt 0.5 -2.37
vt -0.25 -2.323125
vt -0.25 -2.294064
vt 0.25 -2.323125
vt 0.5 -2.323125
vt 0.25 -2.294064
vt 0.5 -2.374353E-21
vt -0.5 -2.374353E-21
vt -0.5 2.37
vt 0.5 2.37
vt -2.37 -2.374353E-21
vt -2.37 0.2323053
vt -1.5 2.374353E-21
vt -2.323125 0.2323053
vt 2.37 0.2323053
vt 2.37 -2.374353E-21
vt 2.323125 0.2323053
vt 1.5 -2.374353E-21
vt -0.5 2.374353E-21
vt 0.5 0.4738106
vt -0.5 0.4738106
vt 0.25 0.4738106
vt -0.25 0.4738106
vt 2.323125 0.3684343
vt 1.5 0.4738106
vt -2.323125 0.3684343
vt -1.5 0.4738106
vt 0.25 -1.5
vt -0.25 -1.5
vt 0.25 0.3721546
vt -2.294064 0.3721546
vt -2.294064 0.4159289
vt 2.294064 0.4159289
vt 2.294064 0.3721546
vt 2.294064 0.2323053
vt -2.294064 0.2323053
vt -0.25 0.3721546
vt 0.25 0.4159289
vt -0.25 0.4159289

usemtl light (Instance)
usemap light (Instance)
f 61/129/20 60/12/20 59/128/20
f 60/12/20 61/129/20 62/130/20
f 65/132/20 64/131/20 63/7/20
f 64/131/20 65/132/20 66/133/20

usemtl _defaultMat (Instance) (Instance)
usemap _defaultMat (Instance) (Instance)
f 68/136/4 60/135/4 67/134/4
f 60/135/4 68/136/4 59/137/4
f 59/137/4 68/136/4 69/138/4
f 69/138/4 68/136/4 64/139/4
f 64/139/4 68/136/4 63/140/4
f 70/141/4 69/138/4 64/139/4
f 68/7/20 72/143/20 71/142/20
f 72/143/20 68/7/20 67/12/20
f 74/4/1 72/144/1 73/2/1
f 72/144/1 74/4/1 71/145/1
f 74/148/3 68/147/3 71/146/3
f 68/147/3 74/148/3 63/149/3
f 63/149/3 74/148/3 7/10/3
f 60/152/2 72/151/2 67/150/2
f 72/151/2 60/152/2 73/153/2
f 73/153/2 60/152/2 5/5/2

usemtl blueSteel (Instance) (Instance)
usemap blueSteel (Instance) (Instance)
f 5/7/5 74/154/5 73/142/5
f 74/154/5 5/7/5 7/12/5
f 7/12/5 5/7/5 75/155/5
f 7/12/5 75/155/5 76/156/5
f 76/156/70 75/155/69 77/157/68
f 76/156/70 77/157/68 78/158/71
f 75/160/2 60/152/2 62/159/2
f 60/152/2 75/160/2 5/5/2
f 7/10/3 65/161/3 63/149/3
f 65/161/3 7/10/3 76/162/3
f 65/140/74 79/141/73 66/139/72
f 79/141/73 65/140/74 78/163/71
f 78/163/71 65/140/74 76/16/70
f 61/137/69 75/14/69 62/135/74
f 75/14/69 61/137/69 77/164/68
f 77/157/68 61/133/69 80/165/4
f 78/162/3 81/167/3 79/166/3
f 81/141/75 77/164/68 82/138/75
f 77/164/68 81/141/75 78/163/71
f 77/160/2 80/169/2 82/168/2
f 66/159/2 70/170/2 64/152/2
f 70/170/2 66/159/2 79/169/2
f 69/171/3 61/161/3 59/149/3
f 61/161/3 69/171/3 80/166/3

usemtl tire (Instance)
usemap tire (Instance)
f 79/165/20 69/128/20 70/131/20
f 69/128/20 79/165/20 80/172/20
f 80/172/20 79/165/20 81/173/20
f 80/172/20 81/173/20 82/174/20
g plane_elevator_31

v -0.5 0.2 -0.7
v -0.5 0.1 -0.7
v -0.5 0.2 0.3
v -0.5 0.1 0.3
v -0.8925788 0.1 0.3
v -0.8925788 0.2 0.3
v -0.8925788 0.1 -0.2047087
v -0.8925788 0.2 -0.2047087
vn -0.7836813 0 -0.6211632
vt 0.7 0.2
vt 0.7 0.1
vt -0.3 0.2
vt -0.3 0.1
vt -0.5 0.1
vt -0.8925788 0.1
vt -0.5 0.2
vt -0.8925788 0.2
vt 0.5 -0.3
vt 0.5 0.7
vt 0.8925788 -0.3
vt 0.8925788 0.2047087
vt 0.5 -0.7
vt 0.5 0.3
vt 0.8925788 -0.2047087
vt 0.8925788 0.3
vt -0.2047087 0.1
vt -0.2047087 0.2
vt 0.3 0.1
vt 0.3 0.2
vt -0.7 0.1
vt -0.7 0.2

usemtl _defaultMat (Instance) (Instance)
usemap _defaultMat (Instance) (Instance)
f 85/177/2 84/176/2 83/175/2
f 84/176/2 85/177/2 86/178/2
f 85/181/5 87/180/5 86/179/5
f 87/180/5 85/181/5 88/182/5
f 87/185/1 84/184/1 86/183/1
f 84/184/1 87/185/1 89/186/1
f 90/189/4 85/188/4 83/187/4
f 85/188/4 90/189/4 88/190/4
f 87/193/3 90/192/3 89/191/3
f 90/192/3 87/193/3 88/194/3
f 89/191/76 83/196/76 84/195/76
f 83/196/76 89/191/76 90/192/76
g plane_elevator_32

v 0.5 0.2 -0.7
v 0.5 0.1 -0.7
v 0.5 0.2 0.3
v 0.5 0.1 0.3
v 0.8925788 0.1 0.3
v 0.8925788 0.2 0.3
v 0.8925788 0.1 -0.2047087
v 0.8925788 0.2 -0.2047087
vn 0.7836813 0 -0.6211632
vt -0.5 0.3
vt -0.5 -0.7
vt -0.8925788 0.3
vt -0.8925788 -0.2047087
vt -0.5 0.7
vt -0.5 -0.3
vt -0.8925788 0.2047087
vt -0.8925788 -0.3

usemtl _defaultMat (Instance) (Instance)
usemap _defaultMat (Instance) (Instance)
f 91/175/3 92/176/3 93/177/3
f 94/178/3 93/177/3 92/176/3
f 94/179/5 95/180/5 93/181/5
f 96/182/5 93/181/5 95/180/5
f 94/197/1 92/198/1 95/199/1
f 97/200/1 95/199/1 92/198/1
f 91/201/4 93/202/4 98/203/4
f 96/204/4 98/203/4 93/202/4
f 97/191/2 98/192/2 95/193/2
f 96/194/2 95/193/2 98/192/2
f 92/195/77 91/196/77 97/191/77
f 98/192/77 97/191/77 91/196/77
g detail_spoilerSmall_33

v -0.3882681 0.51371 0.271502
v -0.3404148 0.51371 0.271502
v -0.3602818 0.54 0.2810974
v 0.3404148 0.51371 0.271502
v 0.3882681 0.51371 0.271502
v 0.3602818 0.54 0.2810974
v 0.3404148 0.4921467 0.2636318
v -0.3404148 0.4921467 0.2636318
v 0.3404148 0.4 0.16
v 0.3882681 0.4 0.16
v 0.3882681 0.4 0.3889026
v 0.3404148 0.4 0.3889026
v 0.3404148 0.4921467 0.4225344
v -0.3404148 0.4921467 0.4225344
v -0.3882681 0.4 0.16
v -0.3404148 0.4 0.16
v -0.3882681 0.4 0.3889026
v -0.3882681 0.51371 0.4304047
v 0.3882681 0.51371 0.4304047
v -0.3602818 0.54 0.44
v 0.3602818 0.54 0.44
v -0.3404148 0.4 0.3889026
vn 0 0.3428588 -0.939387
vn 0 0.3428588 -0.939387
vn 0 0.3428589 -0.939387
vn 0 0.7001407 -0.7140049
vn 0 -0.3428589 0.939387
vn 0 -0.3428589 0.939387
vn 0 -0.3428589 0.939387
vn 0 -0.3428589 0.9393868
vn 0 -0.3428588 0.939387
vn -0.6846727 0.7288505 0
vn 0.6846727 0.7288505 0
vt 0.3882681 0.51371
vt 0.3404148 0.51371
vt 0.3602818 0.54
vt -0.3404148 0.51371
vt -0.3882681 0.51371
vt -0.3602818 0.54
vt -0.3404148 0.4921467
vt 0.3404148 0.4921467
vt -0.3404148 0.4
vt -0.3882681 0.4
vt -0.3882681 -0.3889026
vt -0.3882681 -0.16
vt -0.3404148 -0.3889026
vt -0.3404148 -0.16
vt -0.3404148 -0.4225344
vt -0.3404148 -0.2636318
vt 0.3404148 -0.4225344
vt 0.3404148 -0.2636318
vt 0.16 0.4
vt 0.2636318 0.4921467
vt 0.3889026 0.4
vt 0.4225344 0.4921467
vt 0.271502 0.51371
vt 0.3882681 0.4
vt 0.3404148 0.4
vt 0.4304047 0.51371
vt 0.3602818 0.2810974
vt 0.3602818 0.44
vt 0.3882681 0.271502
vt 0.3882681 0.4304047
vt -0.16 0.4
vt -0.3889026 0.4
vt -0.271502 0.51371
vt -0.4304047 0.51371
vt -0.3602818 0.2810974
vt -0.3602818 0.44
vt -0.2636318 0.4921467
vt -0.4225344 0.4921467
vt 0.3404148 -0.3889026
vt 0.3404148 -0.16
vt 0.3882681 -0.3889026
vt 0.3882681 -0.16
vt -0.3882681 0.271502
vt -0.3882681 0.4304047

usemtl blueSteel (Instance) (Instance)
usemap blueSteel (Instance) (Instance)
f 101/207/78 100/206/78 99/205/78
f 100/206/78 101/207/78 102/208/78
f 102/208/78 101/207/78 103/209/78
f 103/209/78 101/207/78 104/210/79
f 105/211/80 100/206/78 102/208/78
f 100/206/78 105/211/80 106/212/80
f 102/208/81 108/214/81 107/213/81
f 108/214/81 102/208/81 103/209/81
f 110/217/1 108/216/1 109/215/1
f 108/216/1 110/217/1 107/218/1
f 112/221/1 105/220/1 111/219/1
f 105/220/1 112/221/1 106/222/1
f 110/225/3 105/224/3 107/223/3
f 105/224/3 110/225/3 111/226/3
f 102/227/3 107/223/3 105/224/3
f 99/205/81 114/229/81 113/228/81
f 114/229/81 99/205/81 100/206/81
f 115/225/3 99/227/3 113/223/3
f 99/227/3 115/225/3 116/230/3
f 117/205/83 110/229/82 109/228/82
f 110/229/82 117/205/83 111/212/84
f 111/212/84 117/205/83 112/211/85
f 112/211/85 117/205/83 116/209/83
f 116/209/83 117/205/83 118/210/86
f 118/210/86 117/205/83 119/207/86
f 115/214/82 112/211/85 116/209/83
f 112/211/85 115/214/82 120/213/82
f 99/233/87 118/232/87 101/231/87
f 118/232/87 99/233/87 116/234/87
f 103/237/2 109/236/2 108/235/2
f 109/236/2 103/237/2 117/238/2
f 101/231/4 119/240/4 104/239/4
f 119/240/4 101/231/4 118/232/4
f 100/237/2 106/241/2 114/235/2
f 106/241/2 120/236/2 114/235/2
f 120/236/2 106/241/2 112/242/2
f 115/245/1 114/244/1 120/243/1
f 114/244/1 115/245/1 113/246/1
f 104/239/88 117/248/88 103/247/88
f 117/248/88 104/239/88 119/240/88
